<svg width="60" height="60" viewBox="0 0 60 60" fill="none" xmlns="http://www.w3.org/2000/svg">
<rect width="60" height="60" rx="16" fill="url(#paint0_linear_11906_2518)"/>
<path d="M24.458 36.3333H18.1247C15.0641 36.3333 12.583 38.8143 12.583 41.8749V43.4583H29.9997V41.8749C29.9997 38.8143 27.5186 36.3333 24.458 36.3333Z" fill="url(#paint1_linear_11906_2518)"/>
<path d="M22.8753 33.9583H16.542V27.6249C16.542 25.8761 17.9599 24.4583 19.7087 24.4583H26.042V30.7916C26.042 32.5404 24.6241 33.9583 22.8753 33.9583Z" fill="url(#paint2_linear_11906_2518)"/>
<path d="M34.5188 24.1287H29.208L31.8634 27.9221L34.5188 24.1287Z" fill="url(#paint3_linear_11906_2518)"/>
<path d="M33.0016 24.1286H30.7256C30.7256 19.9452 34.129 16.5417 38.3124 16.5417C40.1321 16.5417 41.8922 17.1961 43.2677 18.3838L42.775 18.9547C42.2537 19.5583 41.3915 19.7286 40.6776 19.3735C39.9485 19.0109 39.1394 18.8178 38.3124 18.8178C35.3839 18.8178 33.0016 21.2 33.0016 24.1286Z" fill="url(#paint4_linear_11906_2518)"/>
<path d="M42.1055 24.1286H47.4162L44.7609 20.3352L42.1055 24.1286Z" fill="url(#paint5_linear_11906_2518)"/>
<path d="M43.6225 24.1287H45.8986C45.8986 28.312 42.4951 31.7155 38.3118 31.7155C36.4921 31.7155 34.7319 31.0611 33.3564 29.8734L33.8492 29.3025C34.3704 28.699 35.2327 28.5286 35.9466 28.8837C36.6757 29.2463 37.4848 29.4394 38.3118 29.4394C41.2403 29.4394 43.6225 27.0572 43.6225 24.1287Z" fill="url(#paint6_linear_11906_2518)"/>
<defs>
<linearGradient id="paint0_linear_11906_2518" x1="60" y1="-17" x2="-5.06639e-07" y2="60" gradientUnits="userSpaceOnUse">
<stop stop-color="#ff5500"/>
<stop offset="0.8" stop-color="#173B3F"/>
</linearGradient>
<linearGradient id="paint1_linear_11906_2518" x1="13.4236" y1="36.3645" x2="18.1546" y2="47.9291" gradientUnits="userSpaceOnUse">
<stop stop-color="white" stop-opacity="0.8"/>
<stop offset="1" stop-color="white"/>
</linearGradient>
<linearGradient id="paint2_linear_11906_2518" x1="17.0005" y1="24.4999" x2="26.0005" y2="33.4999" gradientUnits="userSpaceOnUse">
<stop stop-color="white" stop-opacity="0.8"/>
<stop offset="1" stop-color="white"/>
</linearGradient>
<linearGradient id="paint3_linear_11906_2518" x1="28.0091" y1="31.1312" x2="31.5008" y2="22.3408" gradientUnits="userSpaceOnUse">
<stop stop-color="white" stop-opacity="0"/>
<stop offset="1" stop-color="white" stop-opacity="0.8"/>
</linearGradient>
<linearGradient id="paint4_linear_11906_2518" x1="27.8943" y1="30.5468" x2="34.0454" y2="12.2613" gradientUnits="userSpaceOnUse">
<stop stop-color="white" stop-opacity="0"/>
<stop offset="1" stop-color="white" stop-opacity="0.8"/>
</linearGradient>
<linearGradient id="paint5_linear_11906_2518" x1="40.9066" y1="27.3377" x2="44.3983" y2="18.5474" gradientUnits="userSpaceOnUse">
<stop stop-color="white" stop-opacity="0"/>
<stop offset="1" stop-color="white" stop-opacity="0.8"/>
</linearGradient>
<linearGradient id="paint6_linear_11906_2518" x1="30.5252" y1="38.1337" x2="36.6763" y2="19.8482" gradientUnits="userSpaceOnUse">
<stop stop-color="white" stop-opacity="0"/>
<stop offset="1" stop-color="white" stop-opacity="0.8"/>
</linearGradient>
</defs>
</svg>
