<svg width="60" height="60" viewBox="0 0 60 60" fill="none" xmlns="http://www.w3.org/2000/svg">
<rect width="60" height="60" rx="16" fill="url(#paint0_linear_11906_2505)"/>
<path d="M45.8333 14.9583C32.375 13.375 26.0417 25.25 26.0417 25.25H18.125L13.375 33.9583L14.4414 34.9622C15.2267 35.7008 16.3335 35.9897 17.38 35.7285L21.2917 34.75L26.0417 38.7083L25.041 42.7126C24.7631 43.8249 25.1075 45.0005 25.9427 45.7866L26.8333 46.625L34.75 41.875V33.9583C46.625 26.8333 45.8333 14.9583 45.8333 14.9583Z" fill="url(#paint1_linear_11906_2505)"/>
<path d="M38.3128 24.4584C39.8431 24.4584 41.0837 23.2179 41.0837 21.6876C41.0837 20.1573 39.8431 18.9167 38.3128 18.9167C36.7825 18.9167 35.542 20.1573 35.542 21.6876C35.542 23.2179 36.7825 24.4584 38.3128 24.4584Z" fill="url(#paint2_linear_11906_2505)"/>
<defs>
<linearGradient id="paint0_linear_11906_2505" x1="60" y1="-17" x2="-5.06639e-07" y2="60" gradientUnits="userSpaceOnUse">
<stop stop-color="#0FDDCC"/>
<stop offset="0.8" stop-color="#173B3F"/>
</linearGradient>
<linearGradient id="paint1_linear_11906_2505" x1="6.04534" y1="73.5373" x2="41.9027" y2="7.72549" gradientUnits="userSpaceOnUse">
<stop stop-color="white" stop-opacity="0"/>
<stop offset="1" stop-color="white" stop-opacity="0.8"/>
</linearGradient>
<linearGradient id="paint2_linear_11906_2505" x1="35.8094" y1="18.941" x2="41.0594" y2="24.191" gradientUnits="userSpaceOnUse">
<stop stop-color="white" stop-opacity="0.8"/>
<stop offset="1" stop-color="white"/>
</linearGradient>
</defs>
</svg>
