<svg width="60" height="60" viewBox="0 0 60 60" fill="none" xmlns="http://www.w3.org/2000/svg">
<rect width="60" height="60" rx="16" fill="url(#paint0_linear_11906_2485)"/>
<path d="M37.9163 18.9167H36.333V14.9583C36.333 14.0835 37.0415 13.375 37.9163 13.375H39.4997V17.3333C39.4997 18.2081 38.7911 18.9167 37.9163 18.9167Z" fill="url(#paint1_linear_11906_2485)"/>
<path d="M22.0833 18.9167H20.5V14.9583C20.5 14.0835 21.2085 13.375 22.0833 13.375H23.6667V17.3333C23.6667 18.2081 22.9581 18.9167 22.0833 18.9167Z" fill="url(#paint2_linear_11906_2485)"/>
<path d="M44.25 15.75V40.2917C44.25 42.4767 42.4767 44.25 40.2917 44.25H15.75V19.7083C15.75 17.5233 17.5233 15.75 19.7083 15.75H20.5V18.9167H22.0833C22.9542 18.9167 23.6667 18.2042 23.6667 17.3333V15.75H36.3333V18.9167H37.9167C38.7875 18.9167 39.5 18.2042 39.5 17.3333V15.75H44.25Z" fill="url(#paint3_linear_11906_2485)"/>
<path d="M33.958 26.0417V37.1251L40.2913 31.5834L33.958 26.0417Z" fill="#183C40"/>
<path d="M26.0413 26.0417V37.1251L19.708 31.5834L26.0413 26.0417Z" fill="#183C40"/>
<path d="M33.9587 29.2083H26.042V33.9583H33.9587V29.2083Z" fill="#183C40"/>
<defs>
<linearGradient id="paint0_linear_11906_2485" x1="60" y1="-17" x2="-5.06639e-07" y2="60" gradientUnits="userSpaceOnUse">
<stop stop-color="#0FDDCC"/>
<stop offset="0.8" stop-color="#173B3F"/>
</linearGradient>
<linearGradient id="paint1_linear_11906_2485" x1="35.6182" y1="23.6048" x2="43.0493" y2="15.9689" gradientUnits="userSpaceOnUse">
<stop stop-color="white" stop-opacity="0"/>
<stop offset="1" stop-color="white" stop-opacity="0.8"/>
</linearGradient>
<linearGradient id="paint2_linear_11906_2485" x1="19.7852" y1="23.6048" x2="27.2163" y2="15.9689" gradientUnits="userSpaceOnUse">
<stop stop-color="white" stop-opacity="0"/>
<stop offset="1" stop-color="white" stop-opacity="0.8"/>
</linearGradient>
<linearGradient id="paint3_linear_11906_2485" x1="17.1255" y1="15.8749" x2="44.1255" y2="42.8749" gradientUnits="userSpaceOnUse">
<stop stop-color="white" stop-opacity="0.8"/>
<stop offset="1" stop-color="white"/>
</linearGradient>
</defs>
</svg>
