<svg width="60" height="60" viewBox="0 0 60 60" fill="none" xmlns="http://www.w3.org/2000/svg">
<rect width="60" height="60" rx="16" fill="url(#paint0_linear_11906_2469)"/>
<path d="M24.4583 46.6249C30.5795 46.6249 35.5417 41.6627 35.5417 35.5416C35.5417 29.4204 30.5795 24.4583 24.4583 24.4583C18.3372 24.4583 13.375 29.4204 13.375 35.5416C13.375 41.6627 18.3372 46.6249 24.4583 46.6249Z" fill="url(#paint1_linear_11906_2469)"/>
<path d="M41.0834 30.0001C41.0834 34.4888 38.4076 38.3601 34.5601 40.1017C35.1934 38.7084 35.5418 37.1647 35.5418 35.5417C35.5418 29.4222 30.578 24.4584 24.4584 24.4584C22.8355 24.4584 21.2918 24.8067 19.8984 25.4401C21.6401 21.5926 25.5114 18.9167 30.0001 18.9167C36.1197 18.9167 41.0834 23.8805 41.0834 30.0001Z" fill="url(#paint2_linear_11906_2469)"/>
<path d="M46.6254 24.4583C46.6254 28.9471 43.9496 32.8183 40.1021 34.56C40.7354 33.1667 41.0838 31.6229 41.0838 30C41.0838 23.8804 36.12 18.9167 30.0004 18.9167C28.3775 18.9167 26.8338 19.265 25.4404 19.8983C27.1821 16.0508 31.0533 13.375 35.5421 13.375C41.6617 13.375 46.6254 18.3387 46.6254 24.4583Z" fill="url(#paint3_linear_11906_2469)"/>
<path d="M28.2511 38.1803C28.2511 35.4672 26.3439 34.5719 25.2039 34.0383C24.0742 33.5079 23.9753 33.3701 23.9753 32.903C23.9753 32.4502 24.3339 32.0805 24.7749 32.0805H27.3399V29.3271H25.7415V27.625H23.0641V29.8092C22.0151 30.4251 21.2979 31.5738 21.2979 32.903C21.2979 35.2329 22.9801 36.0214 24.0932 36.5439C25.2934 37.106 25.5736 37.3245 25.5736 38.1803C25.5736 38.6331 25.215 39.0028 24.7741 39.0028H21.3533V41.7562H23.0641V43.4583H25.7415V41.5979C27.1863 41.1641 28.2511 39.8048 28.2511 38.1803Z" fill="#183C40"/>
<defs>
<linearGradient id="paint0_linear_11906_2469" x1="60" y1="-17" x2="-5.06639e-07" y2="60" gradientUnits="userSpaceOnUse">
<stop stop-color="#0FDDCC"/>
<stop offset="0.8" stop-color="#173B3F"/>
</linearGradient>
<linearGradient id="paint1_linear_11906_2469" x1="14.4448" y1="24.5554" x2="35.4448" y2="45.5554" gradientUnits="userSpaceOnUse">
<stop stop-color="white" stop-opacity="0.8"/>
<stop offset="1" stop-color="white"/>
</linearGradient>
<linearGradient id="paint2_linear_11906_2469" x1="15.1161" y1="58.0238" x2="39.2578" y2="14.6118" gradientUnits="userSpaceOnUse">
<stop stop-color="white" stop-opacity="0"/>
<stop offset="1" stop-color="white" stop-opacity="0.8"/>
</linearGradient>
<linearGradient id="paint3_linear_11906_2469" x1="20.6581" y1="52.4821" x2="44.7998" y2="9.07001" gradientUnits="userSpaceOnUse">
<stop stop-color="white" stop-opacity="0"/>
<stop offset="1" stop-color="white" stop-opacity="0.8"/>
</linearGradient>
</defs>
</svg>
