<svg width="60" height="60" viewBox="0 0 60 60" fill="none" xmlns="http://www.w3.org/2000/svg">
<rect width="60" height="60" rx="16" fill="url(#paint0_linear_11906_40447)"/>
<path d="M45.8069 38.7608H43.0368V46.2701H33.3498C28.936 46.2701 25.098 43.8004 23.1455 40.1542C21.627 41.0887 19.8331 41.6394 17.9141 41.6394V27.914H26.3495L33.0244 32.0859V17.9016C33.0244 17.3092 32.8993 16.7419 32.6823 16.2329H45.5399C45.5399 18.6693 44.4803 20.9054 43.0368 22.6408V29.5828L46.8666 37.017C47.2754 37.8096 46.6914 38.7608 45.8069 38.7608Z" fill="url(#paint1_linear_11906_40447)"/>
<path d="M13 13.7297H28.853C31.1566 13.7297 33.0248 15.5979 33.0248 17.9016V32.0858L26.3499 27.914H17.1718C14.8681 27.914 13 26.0458 13 23.7421V13.7297Z" fill="url(#paint2_linear_11906_40447)"/>
<defs>
<linearGradient id="paint0_linear_11906_40447" x1="60" y1="-17" x2="-5.06639e-07" y2="60" gradientUnits="userSpaceOnUse">
<stop stop-color="#0FDDCC"/>
<stop offset="0.8" stop-color="#173B3F"/>
</linearGradient>
<linearGradient id="paint1_linear_11906_40447" x1="19.3178" y1="16.3645" x2="47.7594" y2="43.905" gradientUnits="userSpaceOnUse">
<stop stop-color="white" stop-opacity="0.8"/>
<stop offset="1" stop-color="white"/>
</linearGradient>
<linearGradient id="paint2_linear_11906_40447" x1="8.47958" y1="47.6146" x2="28.4061" y2="8.52486" gradientUnits="userSpaceOnUse">
<stop stop-color="white" stop-opacity="0"/>
<stop offset="1" stop-color="white" stop-opacity="0.8"/>
</linearGradient>
</defs>
</svg>
