<svg width="41" height="40" viewBox="0 0 41 40" fill="none" xmlns="http://www.w3.org/2000/svg">
<g filter="url(#filter0_i_10127_21030)">
<path d="M34.0998 32.2415H10.2998C8.42304 32.2415 6.89984 30.7183 6.89984 28.8415C6.89984 26.9647 8.42304 25.4415 10.2998 25.4415H10.9798C12.8566 25.4415 14.3798 23.9183 14.3798 22.0415V12.5215H30.6998C32.5766 12.5215 34.0998 14.0447 34.0998 15.9215V32.2415Z" fill="url(#paint0_linear_10127_21030)"/>
<path d="M10.3 7.76172H14.38V22.0417C14.38 23.9192 12.8574 25.4417 10.98 25.4417H10.3C8.42248 25.4417 6.89996 26.9642 6.89996 28.8417V11.1617C6.89996 9.28424 8.42248 7.76172 10.3 7.76172Z" fill="url(#paint1_linear_10127_21030)"/>
<path d="M17.7798 26.1218C16.651 26.1218 15.7398 27.033 15.7398 28.1618V28.8418H29.3398C30.4686 28.8418 31.3798 27.9306 31.3798 26.8018V26.1218H17.7798ZM27.1434 18.7506L24.7702 20.8042L22.2746 18.4038C21.785 17.9278 21.0098 17.8938 20.4726 18.329L15.937 21.9942L16.5286 22.7286C17.1406 23.497 18.2558 23.6194 19.0174 23.0006L21.2546 21.1986L23.7842 23.6262C24.0426 23.8778 24.3826 24.0002 24.7226 24.0002C25.0422 24.0002 25.355 23.8914 25.6134 23.667L28.925 20.7974L27.1434 18.7506Z" fill="#183C40"/>
<path d="M30.0977 22.1461L31.3095 16.8359L25.9157 17.3344L30.0977 22.1461Z" fill="#13918A" fill-opacity="0.5"/>
</g>
<defs>
<filter id="filter0_i_10127_21030" x="0.5" y="0" width="40" height="40" filterUnits="userSpaceOnUse" color-interpolation-filters="sRGB">
<feFlood flood-opacity="0" result="BackgroundImageFix"/>
<feBlend mode="normal" in="SourceGraphic" in2="BackgroundImageFix" result="shape"/>
<feColorMatrix in="SourceAlpha" type="matrix" values="0 0 0 0 0 0 0 0 0 0 0 0 0 0 0 0 0 0 127 0" result="hardAlpha"/>
<feOffset dy="0.666667"/>
<feComposite in2="hardAlpha" operator="arithmetic" k2="-1" k3="1"/>
<feColorMatrix type="matrix" values="0 0 0 0 0 0 0 0 0 0 0 0 0 0 0 0 0 0 0.25 0"/>
<feBlend mode="normal" in2="shape" result="effect1_innerShadow_10127_21030"/>
</filter>
<linearGradient id="paint0_linear_10127_21030" x1="8.21259" y1="12.6079" x2="25.9686" y2="37.099" gradientUnits="userSpaceOnUse">
<stop stop-color="white" stop-opacity="0.8"/>
<stop offset="1" stop-color="white"/>
</linearGradient>
<linearGradient id="paint1_linear_10127_21030" x1="5.21142" y1="46.675" x2="30.8569" y2="30.3111" gradientUnits="userSpaceOnUse">
<stop stop-color="white" stop-opacity="0"/>
<stop offset="1" stop-color="white" stop-opacity="0.8"/>
</linearGradient>
</defs>
</svg>
