<svg width="40" height="40" viewBox="0 0 40 40" fill="none" xmlns="http://www.w3.org/2000/svg">
<path d="M32.6455 27.0086H30.4295V33.0161H22.6799C19.1488 33.0161 16.0784 31.0403 14.5164 28.1234C13.3016 28.8709 11.8665 29.3115 10.3312 29.3115V18.3312H17.0796L22.4195 21.6687V10.3213C22.4195 9.84739 22.3194 9.3935 22.1459 8.98633H32.4319C32.4319 10.9354 31.5842 12.7243 30.4295 14.1127V19.6662L33.4933 25.6136C33.8203 26.2477 33.3531 27.0086 32.6455 27.0086Z" fill="url(#paint0_linear_10129_10979)"/>
<path d="M6.3996 6.98438H19.082C20.9249 6.98438 22.4194 8.47889 22.4194 10.3218V21.6692L17.0795 18.3318H9.73706C7.89411 18.3318 6.3996 16.8372 6.3996 14.9943V6.98438Z" fill="url(#paint1_linear_10129_10979)"/>
<defs>
<linearGradient id="paint0_linear_10129_10979" x1="24.0474" y1="35.685" x2="10.4547" y2="11.1674" gradientUnits="userSpaceOnUse">
<stop stop-color="white" stop-opacity="0.5"/>
<stop offset="0.75" stop-color="white"/>
</linearGradient>
<linearGradient id="paint1_linear_10129_10979" x1="15.8428" y1="23.3002" x2="8.08269" y2="7.53083" gradientUnits="userSpaceOnUse">
<stop stop-color="white" stop-opacity="0.5"/>
<stop offset="0.75" stop-color="white"/>
</linearGradient>
</defs>
</svg>
