<svg width="40" height="40" viewBox="0 0 40 40" fill="none" xmlns="http://www.w3.org/2000/svg">
<path d="M25 7.50065H15V5.83398C15 4.45315 16.1192 3.33398 17.5 3.33398H25V7.50065Z" fill="url(#paint0_linear_10038_20104)"/>
<path d="M36.6666 19.1667C36.6666 21.9283 34.4283 24.1667 31.6666 24.1667H8.33331C5.57165 24.1667 3.33331 21.9283 3.33331 19.1667V12.5C3.33331 9.73833 5.57165 7.5 8.33331 7.5H36.6666V19.1667Z" fill="url(#paint1_linear_10038_20104)"/>
<path d="M31.6666 24.166H24.1666V24.9993C24.1666 26.3802 23.0475 27.4993 21.6666 27.4993H20H18.3333C16.9525 27.4993 15.8333 26.3802 15.8333 24.9993V24.166H8.33331C5.57498 24.166 3.33331 21.9243 3.33331 19.166V32.4993H20H31.6666C34.4283 32.4993 36.6666 30.261 36.6666 27.4993V19.166C36.6666 21.9243 34.425 24.166 31.6666 24.166Z" fill="url(#paint2_linear_10038_20104)"/>
<path d="M21.6666 27.4993H18.3333C16.9525 27.4993 15.8333 26.3802 15.8333 24.9993V24.166H24.1666V24.9993C24.1666 26.3802 23.0475 27.4993 21.6666 27.4993Z" fill="#173B3F"/>
<defs>
<linearGradient id="paint0_linear_10038_20104" x1="14.7542" y1="7.60956" x2="17.6243" y2="0.333739" gradientUnits="userSpaceOnUse">
<stop stop-color="white" stop-opacity="0.5"/>
<stop offset="0.75" stop-color="white"/>
</linearGradient>
<linearGradient id="paint1_linear_10038_20104" x1="6.5" y1="30.5" x2="6.76328" y2="11.2979" gradientUnits="userSpaceOnUse">
<stop stop-color="white" stop-opacity="0.5"/>
<stop offset="0.75" stop-color="white"/>
</linearGradient>
<linearGradient id="paint2_linear_10038_20104" x1="7.5" y1="49.5" x2="5.77959" y2="20.6935" gradientUnits="userSpaceOnUse">
<stop stop-color="white" stop-opacity="0.5"/>
<stop offset="0.75" stop-color="white"/>
</linearGradient>
</defs>
</svg>
