<svg width="60" height="60" viewBox="0 0 60 60" fill="none" xmlns="http://www.w3.org/2000/svg">
<rect width="60" height="60" rx="16" fill="url(#paint0_linear_11906_2454)"/>
<path d="M19.1221 22.8037L23.7929 27.4824L27.4821 23.7933L22.8112 19.1145L19.1221 22.8037Z" fill="url(#paint1_linear_11906_2454)"/>
<path d="M14.958 14.9583L26.0413 15.8821L15.8819 26.0416L14.958 14.9583Z" fill="url(#paint2_linear_11906_2454)"/>
<path d="M22.8034 40.8776L27.4822 36.2067L23.793 32.5176L19.1143 37.1884L22.8034 40.8776Z" fill="url(#paint3_linear_11906_2454)"/>
<path d="M14.958 45.0416L15.8819 33.9583L26.0413 44.1177L14.958 45.0416Z" fill="url(#paint4_linear_11906_2454)"/>
<path d="M40.8776 37.1963L36.2067 32.5176L32.5176 36.2067L37.1884 40.8855L40.8776 37.1963Z" fill="url(#paint5_linear_11906_2454)"/>
<path d="M45.0413 45.0416L33.958 44.1177L44.1175 33.9583L45.0413 45.0416Z" fill="url(#paint6_linear_11906_2454)"/>
<path d="M37.1963 19.1226L32.5176 23.7934L36.2067 27.4826L40.8855 22.8117L37.1963 19.1226Z" fill="url(#paint7_linear_11906_2454)"/>
<path d="M45.0413 14.9583L44.1175 26.0416L33.958 15.8821L45.0413 14.9583Z" fill="url(#paint8_linear_11906_2454)"/>
<defs>
<linearGradient id="paint0_linear_11906_2454" x1="60" y1="-17" x2="-5.06639e-07" y2="60" gradientUnits="userSpaceOnUse">
<stop stop-color="#0FDDCC"/>
<stop offset="0.8" stop-color="#173B3F"/>
</linearGradient>
<linearGradient id="paint1_linear_11906_2454" x1="17.2349" y1="34.5615" x2="26.7754" y2="17.4217" gradientUnits="userSpaceOnUse">
<stop stop-color="white" stop-opacity="0"/>
<stop offset="1" stop-color="white" stop-opacity="0.8"/>
</linearGradient>
<linearGradient id="paint2_linear_11906_2454" x1="15.4929" y1="15.0068" x2="25.9929" y2="25.5068" gradientUnits="userSpaceOnUse">
<stop stop-color="white" stop-opacity="0.8"/>
<stop offset="1" stop-color="white"/>
</linearGradient>
<linearGradient id="paint3_linear_11906_2454" x1="17.2253" y1="47.95" x2="26.7473" y2="30.8111" gradientUnits="userSpaceOnUse">
<stop stop-color="white" stop-opacity="0"/>
<stop offset="1" stop-color="white" stop-opacity="0.8"/>
</linearGradient>
<linearGradient id="paint4_linear_11906_2454" x1="15.4929" y1="34.0068" x2="25.9929" y2="44.5068" gradientUnits="userSpaceOnUse">
<stop stop-color="white" stop-opacity="0.8"/>
<stop offset="1" stop-color="white"/>
</linearGradient>
<linearGradient id="paint5_linear_11906_2454" x1="30.6304" y1="47.9646" x2="40.1709" y2="30.8248" gradientUnits="userSpaceOnUse">
<stop stop-color="white" stop-opacity="0"/>
<stop offset="1" stop-color="white" stop-opacity="0.8"/>
</linearGradient>
<linearGradient id="paint6_linear_11906_2454" x1="34.4929" y1="34.0068" x2="44.9929" y2="44.5068" gradientUnits="userSpaceOnUse">
<stop stop-color="white" stop-opacity="0.8"/>
<stop offset="1" stop-color="white"/>
</linearGradient>
<linearGradient id="paint7_linear_11906_2454" x1="30.6286" y1="34.5549" x2="40.1506" y2="17.4161" gradientUnits="userSpaceOnUse">
<stop stop-color="white" stop-opacity="0"/>
<stop offset="1" stop-color="white" stop-opacity="0.8"/>
</linearGradient>
<linearGradient id="paint8_linear_11906_2454" x1="34.4929" y1="15.0068" x2="44.9929" y2="25.5068" gradientUnits="userSpaceOnUse">
<stop stop-color="white" stop-opacity="0.8"/>
<stop offset="1" stop-color="white"/>
</linearGradient>
</defs>
</svg>
