<svg width="41" height="40" viewBox="0 0 41 40" fill="none" xmlns="http://www.w3.org/2000/svg">
<path d="M32.7033 30.4735V16.5098H31.307C29.771 16.5098 28.5142 17.7665 28.5142 19.3025V33.2663H29.9106C31.4466 33.2663 32.7033 32.0095 32.7033 30.4735Z" fill="url(#paint0_linear_10129_11002)"/>
<path d="M25.7219 30.472V22.0938H24.3255C22.7895 22.0938 21.5328 23.3505 21.5328 24.8865V33.2648H22.9292C24.4652 33.2648 25.7219 32.008 25.7219 30.472Z" fill="url(#paint1_linear_10129_11002)"/>
<path d="M11.7579 30.472V22.0938H10.3615C8.82546 22.0938 7.56873 23.3505 7.56873 24.8865V33.2648H8.9651C10.5011 33.2648 11.7579 32.008 11.7579 30.472Z" fill="url(#paint2_linear_10129_11002)"/>
<path d="M18.7399 30.4727V18.6035H17.3435C15.8075 18.6035 14.5508 19.8603 14.5508 21.3963V33.2655H15.9472C17.4832 33.2655 18.7399 32.0087 18.7399 30.4727Z" fill="url(#paint3_linear_10129_11002)"/>
<path d="M6.8996 17.3568L15.3595 10.849C16.1241 10.2604 17.1916 10.2709 17.9449 10.8734L23.5227 15.3363L29.6207 9.23828L31.5952 11.2128L25.0553 17.7527C24.3005 18.5074 23.0989 18.5737 22.266 17.907L16.6274 13.3967L10.2621 18.2931C9.34535 18.9982 8.03066 18.8272 7.32479 17.9105L6.8996 17.3568Z" fill="url(#paint4_linear_10129_11002)"/>
<path d="M27.8164 7.43256L33.4019 13.0181L34.1001 6.73438L27.8164 7.43256Z" fill="url(#paint5_linear_10129_11002)"/>
<defs>
<linearGradient id="paint0_linear_10129_11002" x1="30.9836" y1="35.1274" x2="22.4297" y2="31.1439" gradientUnits="userSpaceOnUse">
<stop stop-color="white" stop-opacity="0.5"/>
<stop offset="0.75" stop-color="white"/>
</linearGradient>
<linearGradient id="paint1_linear_10129_11002" x1="24.0021" y1="34.5055" x2="17.0067" y2="29.6189" gradientUnits="userSpaceOnUse">
<stop stop-color="white" stop-opacity="0.5"/>
<stop offset="0.75" stop-color="white"/>
</linearGradient>
<linearGradient id="paint2_linear_10129_11002" x1="10.0381" y1="34.5055" x2="3.04264" y2="29.6189" gradientUnits="userSpaceOnUse">
<stop stop-color="white" stop-opacity="0.5"/>
<stop offset="0.75" stop-color="white"/>
</linearGradient>
<linearGradient id="paint3_linear_10129_11002" x1="17.0202" y1="34.8939" x2="8.90883" y2="30.5769" gradientUnits="userSpaceOnUse">
<stop stop-color="white" stop-opacity="0.5"/>
<stop offset="0.75" stop-color="white"/>
</linearGradient>
<linearGradient id="paint4_linear_10129_11002" x1="21.457" y1="19.7816" x2="18.9525" y2="7.64034" gradientUnits="userSpaceOnUse">
<stop stop-color="white" stop-opacity="0.5"/>
<stop offset="0.75" stop-color="white"/>
</linearGradient>
<linearGradient id="paint5_linear_10129_11002" x1="31.5205" y1="13.716" x2="28.0274" y2="7.20933" gradientUnits="userSpaceOnUse">
<stop stop-color="white" stop-opacity="0.5"/>
<stop offset="0.75" stop-color="white"/>
</linearGradient>
</defs>
</svg>
