<svg width="48" height="48" viewBox="0 0 48 48" fill="none" xmlns="http://www.w3.org/2000/svg">
<path opacity="0.5" d="M12.6523 18.5C14.8615 18.5 16.6523 16.7091 16.6523 14.5C16.6523 12.2909 14.8615 10.5 12.6523 10.5C10.4432 10.5 8.65234 12.2909 8.65234 14.5C8.65234 16.7091 10.4432 18.5 12.6523 18.5Z" fill="url(#paint0_linear_2005_30677)"/>
<path opacity="0.5" d="M35.5 19.217C37.7091 19.217 39.5 17.4262 39.5 15.217C39.5 13.0079 37.7091 11.217 35.5 11.217C33.2909 11.217 31.5 13.0079 31.5 15.217C31.5 17.4262 33.2909 19.217 35.5 19.217Z" fill="url(#paint1_linear_2005_30677)"/>
<path opacity="0.5" d="M40.513 24H28.78C28.501 24 28.237 24.057 27.993 24.154C27.603 22.305 25.965 20.917 24 20.917C21.84 20.917 20.089 22.6 19.945 24.724C19.75 24.666 19.548 24.626 19.334 24.626H7.667C6.47 24.626 5.5 25.596 5.5 26.793V29.5C5.5 32.192 9.082 34.375 13.5 34.375C17.918 34.375 21.5 32.192 21.5 29.5V28.207C22.193 28.748 23.053 29.083 24 29.083C25.015 29.083 25.932 28.699 26.647 28.086V28.8C26.647 31.451 30.229 33.6 34.647 33.6C39.065 33.6 42.647 31.451 42.647 28.8V26.133C42.647 24.955 41.692 24 40.513 24Z" fill="url(#paint2_linear_2005_30677)"/>
<path opacity="0.5" d="M29.5723 34.2251H17.8173C16.6453 34.2251 15.6953 35.1751 15.6953 36.3471V39.0001C15.6953 41.6371 19.2773 43.7751 23.6953 43.7751C28.1133 43.7751 31.6953 41.6371 31.6953 39.0001V36.3471C31.6953 35.1751 30.7443 34.2251 29.5723 34.2251Z" fill="url(#paint3_linear_2005_30677)"/>
<path d="M13.8099 10.572C15.9089 10.954 17.5009 12.791 17.5009 15C17.5009 17.485 15.4859 19.5 13.0009 19.5C10.5729 19.5 8.59391 17.577 8.50391 15.17" stroke="#173B3F" stroke-width="2" stroke-linecap="round" stroke-linejoin="round"/>
<path d="M13 33.5C8.858 33.5 5.5 31.485 5.5 29V26.5C5.5 25.395 6.395 24.5 7.5 24.5H15.255" stroke="#173B3F" stroke-width="2" stroke-linecap="round" stroke-linejoin="round"/>
<path d="M35 19.5C32.515 19.5 30.5 17.485 30.5 15C30.5 12.515 32.515 10.5 35 10.5C37.485 10.5 39.5 12.515 39.5 15" stroke="#173B3F" stroke-width="2" stroke-linecap="round" stroke-linejoin="round"/>
<path d="M33.1602 24.5H40.5002C41.6052 24.5 42.5002 25.395 42.5002 26.5V29C42.5002 31.399 39.3712 33.36 35.4282 33.493" stroke="#173B3F" stroke-width="2" stroke-linecap="round" stroke-linejoin="round"/>
<path d="M24 29.5C26.4853 29.5 28.5 27.4853 28.5 25C28.5 22.5147 26.4853 20.5 24 20.5C21.5147 20.5 19.5 22.5147 19.5 25C19.5 27.4853 21.5147 29.5 24 29.5Z" stroke="#173B3F" stroke-width="2"/>
<path d="M24 11.5C25.933 11.5 27.5 9.933 27.5 8C27.5 6.067 25.933 4.5 24 4.5C22.067 4.5 20.5 6.067 20.5 8C20.5 9.933 22.067 11.5 24 11.5Z" stroke="#173B3F" stroke-width="2"/>
<path d="M24 43.5C19.858 43.5 16.5 41.485 16.5 39V36.5C16.5 35.395 17.395 34.5 18.5 34.5H29.5C30.605 34.5 31.5 35.395 31.5 36.5V39" stroke="#173B3F" stroke-width="2" stroke-linecap="round" stroke-linejoin="round"/>
<defs>
<linearGradient id="paint0_linear_2005_30677" x1="14.6528" y1="11.0354" x2="10.6519" y2="17.9646" gradientUnits="userSpaceOnUse">
<stop stop-color="#0FDDCC"/>
<stop offset="0.7" stop-color="#0FDDCC" stop-opacity="0"/>
</linearGradient>
<linearGradient id="paint1_linear_2005_30677" x1="37.5004" y1="11.7524" x2="33.4996" y2="18.6817" gradientUnits="userSpaceOnUse">
<stop stop-color="#0FDDCC"/>
<stop offset="0.7" stop-color="#0FDDCC" stop-opacity="0"/>
</linearGradient>
<linearGradient id="paint2_linear_2005_30677" x1="33.3623" y1="21.8176" x2="30.2473" y2="36.7089" gradientUnits="userSpaceOnUse">
<stop stop-color="#0FDDCC"/>
<stop offset="0.7" stop-color="#0FDDCC" stop-opacity="0"/>
</linearGradient>
<linearGradient id="paint3_linear_2005_30677" x1="27.6962" y1="34.8642" x2="24.2987" y2="44.7228" gradientUnits="userSpaceOnUse">
<stop stop-color="#0FDDCC"/>
<stop offset="0.7" stop-color="#0FDDCC" stop-opacity="0"/>
</linearGradient>
</defs>
</svg>
