<svg width="49" height="48" viewBox="0 0 49 48" fill="none" xmlns="http://www.w3.org/2000/svg">
<path opacity="0.5" d="M23.7143 41H40.2857C41.2326 41 42 39.9812 42 38.7241V21.2759C42 20.0188 41.2326 19 40.2857 19H23.7143C22.7674 19 22 20.0188 22 21.2759V38.7241C22 39.9812 22.7674 41 23.7143 41Z" fill="url(#paint0_linear_2005_30713)"/>
<path d="M33.8105 6.9784C33.6762 6.98138 33.5428 7.0024 33.4141 7.0409C33.4128 7.0409 33.4115 7.0409 33.4102 7.0409C33.3652 7.05444 33.3209 7.07008 33.2773 7.08778C33.2734 7.08906 33.2695 7.09037 33.2656 7.09168C33.2399 7.10205 33.2145 7.11312 33.1895 7.12489C33.157 7.14002 33.1251 7.1563 33.0938 7.17372C33.0501 7.19827 33.0078 7.225 32.9668 7.25379C32.7391 7.41136 32.5595 7.62888 32.4478 7.88225C32.3361 8.13562 32.2967 8.41496 32.334 8.68934V15.4413C32.334 17.388 33.9447 18.9999 35.8926 18.9999H41.334V27.9999C41.3312 28.1987 41.3679 28.396 41.442 28.5805C41.5161 28.7649 41.6262 28.9328 41.7657 29.0743C41.9053 29.2159 42.0716 29.3283 42.255 29.405C42.4384 29.4817 42.6352 29.5213 42.834 29.5213C43.0328 29.5213 43.2296 29.4817 43.413 29.405C43.5963 29.3283 43.7627 29.2159 43.9022 29.0743C44.0418 28.9328 44.1518 28.7649 44.226 28.5805C44.3001 28.396 44.3368 28.1987 44.334 27.9999V17.746C44.3604 17.585 44.3604 17.4207 44.334 17.2597V16.5878C44.3857 16.3224 44.3647 16.048 44.2732 15.7936C44.1818 15.5392 44.0233 15.3142 43.8145 15.1425L34.959 7.49012C34.816 7.32682 34.6392 7.19649 34.441 7.10814C34.2427 7.0198 34.0276 6.97553 33.8105 6.9784ZM23.834 6.99989C21.3665 6.99989 19.334 9.03239 19.334 11.4999V36.4999C19.334 38.9674 21.3665 40.9999 23.834 40.9999H39.834C42.3015 40.9999 44.334 38.9674 44.334 36.4999V34.2343C44.3368 34.0355 44.3001 33.8381 44.226 33.6537C44.1518 33.4692 44.0418 33.3014 43.9022 33.1598C43.7627 33.0183 43.5963 32.9059 43.413 32.8291C43.2296 32.7524 43.0328 32.7129 42.834 32.7129C42.6352 32.7129 42.4384 32.7524 42.255 32.8291C42.0716 32.9059 41.9053 33.0183 41.7657 33.1598C41.6262 33.3014 41.5161 33.4692 41.442 33.6537C41.3679 33.8381 41.3312 34.0355 41.334 34.2343V36.4999C41.334 37.3464 40.6805 37.9999 39.834 37.9999H23.834C22.9875 37.9999 22.334 37.3464 22.334 36.4999V11.4999C22.334 10.6534 22.9875 9.99989 23.834 9.99989H28.3984C28.5972 10.0027 28.7945 9.96598 28.979 9.89186C29.1635 9.81774 29.3313 9.70769 29.4729 9.56813C29.6144 9.42856 29.7268 9.26225 29.8036 9.07887C29.8803 8.89548 29.9198 8.69867 29.9198 8.49989C29.9198 8.3011 29.8803 8.10429 29.8036 7.92091C29.7268 7.73752 29.6144 7.57121 29.4729 7.43165C29.3313 7.29208 29.1635 7.18204 28.979 7.10792C28.7945 7.0338 28.5972 6.99708 28.3984 6.99989H23.834ZM14.834 9.99989C12.919 9.99989 11.334 11.5849 11.334 13.4999V34.4999C11.334 36.4148 12.919 37.9999 14.834 37.9999H16.334C16.5328 38.0027 16.7301 37.966 16.9145 37.8919C17.099 37.8177 17.2669 37.7077 17.4084 37.5681C17.55 37.4286 17.6624 37.2623 17.7391 37.0789C17.8158 36.8955 17.8553 36.6987 17.8553 36.4999C17.8553 36.3011 17.8158 36.1043 17.7391 35.9209C17.6624 35.7375 17.55 35.5712 17.4084 35.4316C17.2669 35.2921 17.099 35.182 16.9145 35.1079C16.7301 35.0338 16.5328 34.9971 16.334 34.9999H14.834C14.5389 34.9999 14.334 34.7949 14.334 34.4999V13.4999C14.334 13.2048 14.5389 12.9999 14.834 12.9999H16.334C16.5328 13.0027 16.7301 12.966 16.9145 12.8919C17.099 12.8177 17.2669 12.7077 17.4084 12.5681C17.55 12.4286 17.6624 12.2623 17.7391 12.0789C17.8158 11.8955 17.8553 11.6987 17.8553 11.4999C17.8553 11.3011 17.8158 11.1043 17.7391 10.9209C17.6624 10.7375 17.55 10.5712 17.4084 10.4316C17.2669 10.2921 17.099 10.182 16.9145 10.1079C16.7301 10.0338 16.5328 9.99708 16.334 9.99989H14.834ZM35.334 11.7772L40.2188 15.9999H35.8926C35.5665 15.9999 35.334 15.7666 35.334 15.4413V11.7772ZM7.83398 12.9374C5.91903 12.9374 4.33398 14.5224 4.33398 16.4374V31.5624C4.33398 33.4773 5.91903 35.0624 7.83398 35.0624H8.33398C8.53275 35.0652 8.7301 35.0285 8.91455 34.9544C9.099 34.8802 9.26688 34.7702 9.40844 34.6306C9.54999 34.4911 9.6624 34.3248 9.73912 34.1414C9.81584 33.958 9.85535 33.7612 9.85535 33.5624C9.85535 33.3636 9.81584 33.1668 9.73912 32.9834C9.6624 32.8 9.54999 32.6337 9.40844 32.4941C9.26688 32.3546 9.099 32.2445 8.91455 32.1704C8.7301 32.0963 8.53275 32.0596 8.33398 32.0624H7.83398C7.53894 32.0624 7.33398 31.8574 7.33398 31.5624V16.4374C7.33398 16.1423 7.53894 15.9374 7.83398 15.9374H8.33398C8.53275 15.9402 8.7301 15.9035 8.91455 15.8294C9.099 15.7552 9.26688 15.6452 9.40844 15.5056C9.54999 15.3661 9.6624 15.1998 9.73912 15.0164C9.81584 14.833 9.85535 14.6362 9.85535 14.4374C9.85535 14.2386 9.81584 14.0418 9.73912 13.8584C9.6624 13.675 9.54999 13.5087 9.40844 13.3691C9.26688 13.2296 9.099 13.1195 8.91455 13.0454C8.7301 12.9713 8.53275 12.9346 8.33398 12.9374H7.83398Z" fill="#173B3F"/>
<defs>
<linearGradient id="paint0_linear_2005_30713" x1="26.9989" y1="39.5278" x2="38.4978" y2="21.4228" gradientUnits="userSpaceOnUse">
<stop stop-color="#0FDDCC"/>
<stop offset="0.7" stop-color="#0FDDCC" stop-opacity="0"/>
</linearGradient>
</defs>
</svg>
