<svg width="49" height="48" viewBox="0 0 49 48" fill="none" xmlns="http://www.w3.org/2000/svg">
<path opacity="0.5" d="M41.1665 7.18506V37.9131H16.1445V7.18506H41.1665Z" fill="url(#paint0_linear_2005_30696)"/>
<path d="M41.166 32.5V35.5C41.166 37.157 39.823 38.5 38.166 38.5H18.166C16.509 38.5 15.166 37.157 15.166 35.5V7.5H38.166C39.823 7.5 41.166 8.843 41.166 10.5V27.213" stroke="#173B3F" stroke-width="2" stroke-linecap="round" stroke-linejoin="round"/>
<path d="M9.16602 17.7019V36.4999C9.16602 40.9179 12.748 44.4999 17.166 44.4999H32.666" stroke="#173B3F" stroke-width="2" stroke-linecap="round" stroke-linejoin="round"/>
<path d="M15.166 7.5C15.166 5.843 13.823 4.5 12.166 4.5C10.509 4.5 9.16602 5.843 9.16602 7.5V11.255" stroke="#173B3F" stroke-width="2" stroke-linecap="round" stroke-linejoin="round"/>
<path d="M15.166 35.5C15.166 33.843 13.823 32.5 12.166 32.5C10.509 32.5 9.16602 33.843 9.16602 35.5" stroke="#173B3F" stroke-width="2" stroke-linecap="round" stroke-linejoin="round"/>
<path d="M22.123 16.5181H34.123" stroke="#173B3F" stroke-width="2" stroke-linecap="round" stroke-linejoin="round"/>
<path d="M31.2207 23.5H34.1667" stroke="#173B3F" stroke-width="2" stroke-linecap="round" stroke-linejoin="round"/>
<path d="M22.166 23.5H25.22" stroke="#173B3F" stroke-width="2" stroke-linecap="round" stroke-linejoin="round"/>
<path d="M31.2734 28.5H34.2194" stroke="#173B3F" stroke-width="2" stroke-linecap="round" stroke-linejoin="round"/>
<path d="M22.2207 28.5H25.2747" stroke="#173B3F" stroke-width="2" stroke-linecap="round" stroke-linejoin="round"/>
<defs>
<linearGradient id="paint0_linear_2005_30696" x1="34.9124" y1="9.24134" x2="18.1678" y2="32.8569" gradientUnits="userSpaceOnUse">
<stop stop-color="#0FDDCC"/>
<stop offset="0.7" stop-color="#0FDDCC" stop-opacity="0"/>
</linearGradient>
</defs>
</svg>
