<svg width="62" height="38" viewBox="0 0 62 38" fill="none" xmlns="http://www.w3.org/2000/svg">
<path d="M19.3471 38C8.83988 38 0.324219 29.4958 0.324219 19C0.324219 8.50422 8.83988 0 19.3471 0C20.7206 0 22.0483 0.148795 23.3417 0.423494L27.5881 8.85904C25.379 7.38253 22.7465 6.46687 19.8622 6.3753C19.6905 6.36385 19.5074 6.36386 19.3357 6.36386C12.3423 6.3753 6.68807 12.0639 6.68807 19.0343C6.68807 26.0163 12.3537 31.7163 19.3586 31.7163C25.276 31.7163 30.232 27.3783 31.6284 22.2735H18.1224V15.7036H31.1019L36.676 26.8175C33.6658 33.3873 27.0387 38 19.3471 38Z" fill="#222222"/>
<path d="M42.823 37.8968L39.126 30.5715L54.2344 0.400391H61.6627L42.823 37.8968Z" fill="#222222"/>
</svg>
