<svg width="87" height="48" viewBox="0 0 87 48" fill="none" xmlns="http://www.w3.org/2000/svg">
<g clip-path="url(#clip0_1424_24446)">
<path fill-rule="evenodd" clip-rule="evenodd" d="M10.7228 12.4259C9.6139 12.9239 8.50503 13.1981 6.95236 13.1981C3.45453 13.1981 0.946289 11.1731 0.946289 7.58631C0.946289 4.30851 3.45453 1.75071 6.91836 1.75071C7.85664 1.75071 8.86292 1.97451 9.57931 2.28291L10.1597 1.69971H10.6548L10.8594 5.90391L10.2277 5.93871C9.10211 3.51891 8.12924 2.59191 6.74717 2.59191C5.0412 2.59191 3.76173 4.18851 3.76173 7.32891C3.76173 10.5893 5.34839 12.2717 7.46415 12.2717C7.90734 12.2717 8.18053 12.2201 8.58973 12.0827L10.6035 9.49131L11.064 9.55971L10.7228 12.4259Z" fill="#231F20"/>
<path fill-rule="evenodd" clip-rule="evenodd" d="M16.9172 6.40232C16.3028 6.40232 15.9276 6.55652 15.3305 6.88292V12.0657L16.2515 12.4431V12.9405H12.0033V12.4431L13.0954 12.0657V2.19752L11.918 1.47692V1.03052L15.006 0.224121L15.3305 0.412521V6.16172L15.5178 6.19592C16.3028 5.49272 17.2244 4.92632 18.2825 4.92632C19.7153 4.92632 20.4663 5.87012 20.4663 7.27712V12.0657L21.5579 12.4431V12.9405H17.3097V12.4431L18.2312 12.0657V8.03252C18.2312 7.03712 17.8727 6.40232 16.9172 6.40232Z" fill="#231F20"/>
<path fill-rule="evenodd" clip-rule="evenodd" d="M26.4887 9.13107C24.6629 9.19947 23.9978 9.83487 23.9978 10.6929C23.9978 11.4819 24.4416 11.9115 25.2259 11.9115C25.5677 11.9115 26.0282 11.7567 26.4887 11.4651V9.13107ZM28.6045 11.3103C28.6045 11.8941 28.8604 12.2547 29.8499 12.2715L29.8839 12.7179C29.3895 12.9063 28.6385 13.1127 27.9734 13.1127C27.1884 13.1127 26.7446 12.7863 26.608 11.9799L26.4034 11.9457C25.6357 12.6663 24.9021 13.0953 23.9978 13.0953C22.7696 13.0953 21.916 12.4263 21.916 11.2419C21.916 9.78327 23.418 8.78787 26.4887 8.56467V7.62087C26.4887 6.33327 25.9769 5.90427 24.6975 5.90427C24.3563 5.90427 24.0491 5.97327 23.8272 6.05907C24.1344 6.31647 24.305 6.60807 24.305 6.98547C24.305 7.53447 23.9292 7.96407 23.2814 7.96407C22.667 7.96407 22.2065 7.48347 22.2065 6.91707C22.2065 5.73267 24.0831 4.92627 25.8743 4.92627C27.7342 4.92627 28.6045 5.63007 28.6045 7.31187V11.3103Z" fill="#231F20"/>
<path fill-rule="evenodd" clip-rule="evenodd" d="M38.33 12.0655L39.4048 12.4429V12.9403H35.1733V12.4429L36.0949 12.0655V8.03231C36.0949 7.01951 35.7364 6.40211 34.7981 6.40211C34.2178 6.40211 33.8426 6.57371 33.2628 6.88271V12.0655L34.1671 12.4429V12.9403H29.9355V12.4429L31.0277 12.0655V6.72791L29.9528 6.00731V5.56091L32.8703 4.87451L33.1942 5.08031L33.0749 6.31571L33.2795 6.35051C34.3204 5.38931 35.2079 4.92611 36.1462 4.92611C37.545 4.92611 38.33 5.81831 38.33 7.27751V12.0655Z" fill="#231F20"/>
<path fill-rule="evenodd" clip-rule="evenodd" d="M10.2793 29.8119H0.776008L0.708008 29.3829L7.53246 19.8063L4.92222 19.8405C3.98334 19.8405 3.55685 20.1495 2.82317 21.1107L1.73099 22.4835L1.3051 22.3809L1.62899 18.8799H10.5525L10.6205 19.3089L3.84674 28.9023L7.08868 28.8681C7.97625 28.8681 8.40275 28.5075 8.96524 27.6837L10.228 25.8303L10.6205 25.8993L10.2793 29.8119Z" fill="#231F20"/>
<path fill-rule="evenodd" clip-rule="evenodd" d="M20.2782 28.9882V29.4172L17.3434 30.1036L17.0195 29.9146L17.1388 28.6792L16.9342 28.645C15.8934 29.6062 15.0571 30.0694 14.0675 30.0694C12.6347 30.0694 11.8838 29.0908 11.8838 27.7006V23.548L10.8262 22.8442V22.4326L13.8116 21.7456L14.1188 21.9514V26.9284C14.1188 27.9928 14.494 28.576 15.4156 28.576C15.9954 28.576 16.3712 28.4218 16.9509 28.1128V23.548L15.8761 22.8442V22.4326L18.8621 21.7456L19.186 21.9514V28.3534L20.2782 28.9882Z" fill="#231F20"/>
<path fill-rule="evenodd" clip-rule="evenodd" d="M26.8131 24.8694C26.0454 24.8694 25.6016 24.303 25.6016 23.5308C25.6016 23.2044 25.6696 22.8954 25.7895 22.6212C25.6869 22.6038 25.6016 22.587 25.4823 22.587C24.2195 22.638 23.1107 23.7366 23.1107 25.8132C23.1107 27.7182 24.2708 28.7136 25.8235 28.7136C26.5232 28.7136 27.001 28.5588 27.8027 28.2504L27.9733 28.662C27.0177 29.6406 25.9428 30.0864 24.7653 30.0864C22.5649 30.0864 20.8076 28.4904 20.8076 26.1222C20.8076 23.7192 22.6669 21.7974 25.2097 21.7974C26.8984 21.7974 27.9566 22.6212 27.9566 23.6334C27.9566 24.3372 27.4788 24.8694 26.8131 24.8694Z" fill="#231F20"/>
<path fill-rule="evenodd" clip-rule="evenodd" d="M36.5889 28.9537L37.4079 29.3143V29.8117H33.5862V29.3659L34.2173 29.0395L32.2381 26.3281H31.641V28.9363L32.494 29.3143V29.8117H28.3138V29.3143L29.406 28.9363V19.0681L28.2285 18.3475V17.9011L31.3171 17.0947L31.641 17.2831V25.4179H32.2894L34.3712 23.0671L33.4323 22.4833V22.0543H37.0494V22.5691L35.9918 22.9813L33.6375 25.0921L36.5889 28.9537Z" fill="#231F20"/>
<path fill-rule="evenodd" clip-rule="evenodd" d="M42.7662 25.0752C42.7495 23.3244 42.3057 22.5006 41.3501 22.5006C40.4118 22.5006 39.7461 23.5134 39.6781 25.2294L42.7662 25.0752ZM39.6608 25.8474C39.6781 27.7182 40.4798 28.7652 42.2031 28.7652C42.9881 28.7652 43.6704 28.6104 44.6773 28.233L44.8652 28.6278C43.807 29.5026 42.5443 30.0864 41.4181 30.0864C38.9784 30.0864 37.4258 28.4736 37.4258 26.0874C37.4258 23.616 39.3536 21.7974 41.4867 21.7974C44.0462 21.7974 45.0352 23.6676 44.9499 25.8474H39.6608Z" fill="#231F20"/>
<path fill-rule="evenodd" clip-rule="evenodd" d="M51.3485 24.5091C50.6829 24.5091 50.2737 24.0111 50.1884 23.4279C49.6426 23.5479 49.2155 23.9085 48.8403 24.4059V28.9365L50.0518 29.3145V29.8119H45.5137V29.3145L46.6053 28.9365V23.5995L45.5304 22.8789V22.4325L48.4484 21.7461L48.7723 21.9519L48.5844 23.5995L48.789 23.6511C49.4887 22.4841 50.1884 21.7803 51.1953 21.7803C51.9969 21.7803 52.5773 22.3125 52.5773 23.1357C52.5773 23.9253 52.0482 24.5091 51.3485 24.5091Z" fill="#231F20"/>
<path fill-rule="evenodd" clip-rule="evenodd" d="M57.013 23.2392C56.5865 23.2392 56.194 23.3592 55.8355 23.4966V28.4736C56.262 29.0226 56.7398 29.2974 57.4054 29.2974C58.3097 29.2974 59.1114 28.422 59.1114 26.2422C59.1114 24.2004 58.3437 23.2392 57.013 23.2392ZM56.9617 30.087C55.9721 30.087 54.6246 29.8638 53.6004 29.538V19.0686L52.4062 18.348V17.9016L55.5116 17.0952L55.8355 17.2836V22.8102L56.0407 22.8444C56.7398 22.2096 57.4394 21.7974 58.4117 21.7974C60.0157 21.7974 61.4658 23.2902 61.4658 25.7106C61.4658 28.0104 59.7598 30.087 56.9617 30.087Z" fill="#231F20"/>
<path fill-rule="evenodd" clip-rule="evenodd" d="M67.7281 25.0752C67.7108 23.3244 67.2676 22.5006 66.3114 22.5006C65.3737 22.5006 64.708 23.5134 64.64 25.2294L67.7281 25.0752ZM64.6227 25.8474C64.64 27.7182 65.4417 28.7652 67.165 28.7652C67.95 28.7652 68.6324 28.6104 69.6386 28.233L69.8265 28.6278C68.769 29.5026 67.5062 30.0864 66.38 30.0864C63.9404 30.0864 62.3877 28.4736 62.3877 26.0874C62.3877 23.616 64.3156 21.7974 66.448 21.7974C69.0076 21.7974 69.9971 23.6676 69.9118 25.8474H64.6227Z" fill="#231F20"/>
<path fill-rule="evenodd" clip-rule="evenodd" d="M76.3105 24.5091C75.6454 24.5091 75.2356 24.0111 75.1503 23.4279C74.6045 23.5479 74.178 23.9085 73.8022 24.4059V28.9365L75.0137 29.3145V29.8119H70.4756V29.3145L71.5672 28.9365V23.5995L70.4929 22.8789V22.4325L73.4103 21.7461L73.7342 21.9519L73.5463 23.5995L73.7509 23.6511C74.4506 22.4841 75.1503 21.7803 76.1572 21.7803C76.9588 21.7803 77.5392 22.3125 77.5392 23.1357C77.5392 23.9253 77.0101 24.5091 76.3105 24.5091Z" fill="#231F20"/>
<path fill-rule="evenodd" clip-rule="evenodd" d="M81.3948 22.398C80.6272 22.398 80.0814 22.896 80.0814 24.3888C80.0814 25.9506 80.6105 26.3796 81.4801 26.3796C82.2478 26.3796 82.7429 25.6758 82.7429 24.3204C82.7429 23.0502 82.2651 22.398 81.3948 22.398ZM82.4011 30.0696L79.6549 30.0354C79.433 30.327 79.2791 30.7044 79.2791 31.1682C79.2791 32.0604 80.0128 32.6784 81.77 32.6784C83.1861 32.6784 84.2956 31.9746 84.2956 31.1508C84.2956 30.396 83.7152 30.0864 82.4011 30.0696ZM81.4461 26.9802C80.8657 26.9802 80.5079 26.9286 80.2007 26.826C80.0301 27.0486 79.8768 27.3582 79.8768 27.5808C79.8768 28.0104 80.1834 28.2162 81.0023 28.233L83.1008 28.2672C84.8754 28.302 85.7969 28.9884 85.7969 30.2754C85.7969 31.9572 83.9711 33.3816 81.1729 33.3816C78.614 33.3816 77.4365 32.6268 77.4365 31.6314C77.4365 30.9966 77.9656 30.4128 79.0918 29.9838L79.0745 29.8122C78.3921 29.589 78.0849 29.16 78.0849 28.6794C78.0849 28.113 78.5627 27.4956 79.569 26.706V26.6028C78.6653 26.1564 78.0336 25.3668 78.0336 24.3888C78.0336 22.7928 79.535 21.7974 81.4801 21.7974C82.6236 21.7974 83.34 22.1064 83.9371 22.5354L85.2506 21.7974H86.2234V23.2902H85.8822L84.4662 23.016L84.4316 23.1534C84.6368 23.5134 84.7901 23.8914 84.7901 24.4404C84.7901 25.899 83.5106 26.9802 81.4461 26.9802Z" fill="#231F20"/>
<path fill-rule="evenodd" clip-rule="evenodd" d="M6.66193 46.1166V46.683H0.84375V46.1166L2.48171 45.7392V36.6948L0.84375 36.3168V35.751H6.66193V36.3168L5.04126 36.6948V45.7392L6.66193 46.1166Z" fill="#231F20"/>
<path fill-rule="evenodd" clip-rule="evenodd" d="M15.7909 45.8077L16.8658 46.1851V46.6825H12.6343V46.1851L13.5559 45.8077V41.7745C13.5559 40.7617 13.1974 40.1443 12.2591 40.1443C11.6787 40.1443 11.3041 40.3159 10.7237 40.6243V45.8077L11.628 46.1851V46.6825H7.39648V46.1851L8.48866 45.8077V40.4701L7.41378 39.7495V39.3031L10.3312 38.6167L10.6557 38.8225L10.5358 40.0579L10.741 40.0927C11.7813 39.1315 12.6689 38.6683 13.6072 38.6683C15.0059 38.6683 15.7909 39.5605 15.7909 41.0197V45.8077Z" fill="#231F20"/>
<path fill-rule="evenodd" clip-rule="evenodd" d="M19.3055 34.2061C20.1244 34.2061 20.7048 34.8067 20.7048 35.5963C20.7048 36.3685 20.0904 37.0717 19.2375 37.0717C18.4525 37.0717 17.8554 36.4885 17.8554 35.6989C17.8554 34.9267 18.4698 34.2061 19.3055 34.2061ZM17.1044 39.7495V39.3031L20.1244 38.6167L20.4143 38.7883V45.8077L21.4725 46.1851V46.6825H17.0537V46.1851L18.1793 45.8077V40.4701L17.1044 39.7495Z" fill="#231F20"/>
<path fill-rule="evenodd" clip-rule="evenodd" d="M24.8849 46.906C23.5369 46.906 22.8545 46.2538 22.8545 44.8636V40.0414H21.541V39.5776L23.1957 38.428L24.4585 36.4888H25.0895V38.8912H27.6831V40.0414H25.0895V44.0566C25.0895 44.7778 25.1921 45.1558 25.5333 45.3958C25.8405 45.6016 26.1644 45.6532 26.7275 45.6532C27.0007 45.6532 27.3586 45.6358 27.7171 45.6016L27.7344 46.1338C27.1027 46.5286 25.8912 46.906 24.8849 46.906Z" fill="#231F20"/>
<path fill-rule="evenodd" clip-rule="evenodd" d="M30.1736 34.2061C30.9926 34.2061 31.573 34.8067 31.573 35.5963C31.573 36.3685 30.9586 37.0717 30.1056 37.0717C29.3206 37.0717 28.7236 36.4885 28.7236 35.6989C28.7236 34.9267 29.3379 34.2061 30.1736 34.2061ZM27.9726 39.7495V39.3031L30.9926 38.6167L31.2825 38.7883V45.8077L32.3407 46.1851V46.6825H27.9219V46.1851L29.0475 45.8077V40.4701L27.9726 39.7495Z" fill="#231F20"/>
<path fill-rule="evenodd" clip-rule="evenodd" d="M37.4418 42.8733C35.616 42.9417 34.9509 43.5765 34.9509 44.4351C34.9509 45.2241 35.3947 45.6537 36.1791 45.6537C36.5209 45.6537 36.9814 45.4989 37.4418 45.2073V42.8733ZM39.5576 45.0525C39.5576 45.6363 39.8135 45.9969 40.8031 46.0137L40.8371 46.4601C40.3426 46.6485 39.5916 46.8549 38.9265 46.8549C38.1415 46.8549 37.6977 46.5285 37.5611 45.7221L37.3565 45.6879C36.5889 46.4085 35.8552 46.8375 34.9509 46.8375C33.7227 46.8375 32.8691 46.1685 32.8691 44.9841C32.8691 43.5255 34.3711 42.5301 37.4418 42.3069V41.3631C37.4418 40.0755 36.9301 39.6465 35.6506 39.6465C35.3094 39.6465 35.0022 39.7155 34.7803 39.8013C35.0875 40.0587 35.2581 40.3503 35.2581 40.7277C35.2581 41.2767 34.8823 41.7063 34.2345 41.7063C33.6201 41.7063 33.1596 41.2257 33.1596 40.6593C33.1596 39.4749 35.0362 38.6685 36.8275 38.6685C38.6873 38.6685 39.5576 39.3723 39.5576 41.0541V45.0525Z" fill="#231F20"/>
<path fill-rule="evenodd" clip-rule="evenodd" d="M43.9601 46.906C42.6121 46.906 41.9297 46.2538 41.9297 44.8636V40.0414H40.6162V39.5776L42.2709 38.428L43.5336 36.4888H44.1647V38.8912H46.7583V40.0414H44.1647V44.0566C44.1647 44.7778 44.2673 45.1558 44.6085 45.3958C44.9157 45.6016 45.2396 45.6532 45.8027 45.6532C46.0759 45.6532 46.4338 45.6358 46.7923 45.6016L46.8096 46.1338C46.1779 46.5286 44.9664 46.906 43.9601 46.906Z" fill="#231F20"/>
<path fill-rule="evenodd" clip-rule="evenodd" d="M49.2498 34.2061C50.0688 34.2061 50.6492 34.8067 50.6492 35.5963C50.6492 36.3685 50.0348 37.0717 49.1818 37.0717C48.3968 37.0717 47.7997 36.4885 47.7997 35.6989C47.7997 34.9267 48.4141 34.2061 49.2498 34.2061ZM47.0487 39.7495V39.3031L50.0688 38.6167L50.3587 38.7883V45.8077L51.4169 46.1851V46.6825H46.998V46.1851L48.1236 45.8077V40.4701L47.0487 39.7495Z" fill="#231F20"/>
<path fill-rule="evenodd" clip-rule="evenodd" d="M56.5352 44.4176H56.6372L57.4222 42.3926L58.2411 39.9386L57.2516 39.4064V38.9258H60.6301V39.4412L59.4866 40.007L56.5519 46.8722H55.2897L52.2864 39.8528L51.2461 39.4412V38.9258H55.8355V39.4064L54.7779 39.818L56.5352 44.4176Z" fill="#231F20"/>
<path fill-rule="evenodd" clip-rule="evenodd" d="M66.021 41.9463C66.0037 40.1961 65.5606 39.3717 64.605 39.3717C63.6667 39.3717 63.001 40.3845 62.933 42.1005L66.021 41.9463ZM62.9157 42.7185C62.933 44.5893 63.7347 45.6363 65.458 45.6363C66.2429 45.6363 66.9253 45.4821 67.9322 45.1041L68.1195 45.4989C67.0619 46.3743 65.7992 46.9581 64.673 46.9581C62.2333 46.9581 60.6807 45.3447 60.6807 42.9585C60.6807 40.4877 62.6085 38.6685 64.741 38.6685C67.3005 38.6685 68.2901 40.5393 68.2048 42.7185H62.9157Z" fill="#231F20"/>
<path fill-rule="evenodd" clip-rule="evenodd" d="M76.7754 41.4366C76.3973 41.7012 75.9547 41.8668 75.3391 41.88C74.5982 41.8956 74.0417 41.4024 73.9904 40.674C73.963 40.287 74.0918 39.9168 74.3537 39.6336C74.6161 39.3498 74.9734 39.1908 75.3594 39.1878C75.555 39.186 75.7614 39.2262 75.9386 39.303C75.9386 39.303 75.8902 39.7098 75.8741 39.8928L76.4837 39.8964L76.5929 38.9808L76.4217 38.8716C76.1014 38.6736 75.7322 38.5692 75.354 38.5728C74.8034 38.5776 74.2743 38.8116 73.9009 39.2154C73.5222 39.6252 73.3355 40.158 73.3754 40.7166C73.41 41.2122 73.6224 41.6646 73.9719 41.9904C74.3256 42.321 74.8022 42.4986 75.3176 42.4938C75.3301 42.4938 75.3427 42.4938 75.3558 42.4932C75.6677 42.4854 76.0197 42.4254 76.4068 42.2712L76.8464 41.4126C76.8464 41.4126 76.8375 41.3928 76.7754 41.4366Z" fill="#FF414C"/>
<path fill-rule="evenodd" clip-rule="evenodd" d="M78.8462 43.6362L78.7722 44.4792L78.771 44.4888C78.7412 44.808 78.5718 45.0786 78.3177 45.2136C78.1161 45.321 77.8954 45.3204 77.6968 45.2118C77.4904 45.099 77.3919 44.9292 77.355 44.715C77.2971 44.3754 77.4892 44.0214 77.751 43.8426L81.8382 41.1678C81.8692 41.3946 81.8853 41.6256 81.8853 41.8602C81.8853 44.6286 79.6485 46.8804 76.8986 46.8804C74.1488 46.8804 71.9114 44.6286 71.9114 41.8602C71.9114 39.0924 74.1488 36.84 76.8986 36.84C78.9547 36.84 80.7233 38.1 81.4851 39.8928L81.9837 39.567C81.1105 37.6152 79.1605 36.252 76.8986 36.252C73.8243 36.252 71.3232 38.7678 71.3232 41.8602C71.3232 44.9526 73.8243 47.4684 76.8986 47.4684C79.973 47.4684 82.474 44.9526 82.474 41.8602C82.474 41.5032 82.44 41.154 82.3762 40.8156C82.338 40.5942 82.2539 40.3002 82.2396 40.2528L81.0789 40.983L79.5417 41.9622C79.4874 41.7564 79.3633 41.5482 79.1009 41.4282C78.7901 41.286 78.2867 41.3958 77.9169 41.607C77.9169 41.607 78.9291 39.6372 79.0967 39.3138C79.1074 39.2922 79.0925 39.2676 79.0687 39.2676L79.0066 39.2682L79.0072 39.267H77.1766L77.1003 39.9036L77.3866 39.9024H78.1256L76.6767 42.693C76.6487 42.7476 76.7072 42.8058 76.7614 42.7776L77.5351 42.3642C77.9079 42.1716 78.5294 41.7762 78.8366 42.0048C78.8814 42.0378 78.9386 42.126 78.9422 42.2178C78.944 42.2538 78.9261 42.2874 78.8963 42.3078L77.3544 43.356C76.8527 43.716 76.6571 44.2524 76.7036 44.7576C76.7424 45.183 77.0054 45.549 77.3955 45.7626C77.6007 45.8742 77.822 45.927 78.0427 45.921C78.2372 45.9156 78.431 45.8646 78.6124 45.768C79.0526 45.5346 79.3449 45.0798 79.3962 44.5518L79.5202 43.1328L78.8462 43.6362Z" fill="#FF414C"/>
</g>
<defs>
<clipPath id="clip0_1424_24446">
<rect width="85.8947" height="48" fill="white" transform="translate(0.662109)"/>
</clipPath>
</defs>
</svg>
