<svg width="162" height="28" viewBox="0 0 162 28" fill="none" xmlns="http://www.w3.org/2000/svg">
<path d="M2.79102 2.2832V10.1142H33.8988V2.2832H2.79102ZM2.79102 17.8854V25.7163H33.8988V17.8854H2.79102Z" fill="#BBBCBE"/>
<path d="M50.8562 2.2832C48.4307 2.2832 46.7677 2.88816 45.652 3.77766C44.3399 4.79868 43.7809 6.17836 43.7809 7.5437C43.7809 8.72014 44.1575 9.76746 44.7165 10.5924C45.617 11.8956 48.1991 13.3135 50.096 14.2987C51.897 15.2193 53.6021 15.9629 54.5984 17.168C55.251 17.9595 55.5925 18.7677 55.5925 20.0374C55.5925 21.4673 54.975 22.56 54.0137 23.3252C53.0477 24.0904 51.7005 24.5208 50.2714 24.5208C46.9782 24.5208 45.2451 23.5261 44.2487 19.6189L43.1377 19.9178C43.5447 21.3143 43.9072 22.67 44.1902 24.6403C45.9889 25.3075 48.1758 25.7163 49.9791 25.7163C52.746 25.7163 54.816 24.889 56.1188 23.6839C57.2999 22.6031 57.8729 21.1517 57.8729 19.4994C57.8729 17.9428 57.1806 16.4961 56.5281 15.7333C55.1902 14.1767 53.3986 13.4163 50.9731 12.1466C49.0154 11.1304 47.8015 10.4298 46.9969 9.63595C46.4075 9.06447 45.9444 8.01476 45.9444 7.12525C45.9444 6.14011 46.3093 5.31038 47.0554 4.67434C47.9255 3.91635 49.1862 3.47877 50.7392 3.47877C54.409 3.47877 55.0569 4.6313 55.7094 7.90237L56.8204 7.60348C56.5398 6.17119 56.245 4.48305 56.0603 3.17988C54.4722 2.54862 52.8466 2.2832 50.8562 2.2832ZM95.2958 2.70165V3.65811C97.6231 3.65811 97.8102 3.8207 97.8102 6.10902V21.9503C97.8102 24.2051 97.6231 24.3414 95.2958 24.3414V25.2381H105.412C108.644 25.2381 110.457 24.4706 111.668 23.2654C112.91 22.0579 113.423 20.4893 113.423 18.9016C113.423 17.1537 112.555 15.9031 111.434 15.016C110.099 13.9639 108.312 13.4068 106.289 13.3422V13.2825C108.246 12.9956 109.568 12.3452 110.499 11.4892C111.65 10.4395 112.019 9.04783 112.019 7.8427C112.019 6.22151 111.212 4.96377 110.031 4.13644C108.352 2.98868 106.516 2.70175 103.658 2.70175L95.2958 2.70165ZM82.3732 3.23966C81.0026 3.23966 79.9571 3.76571 79.2157 4.495C78.1889 5.5758 77.6954 7.04156 77.6954 8.97839V10.9511H75.4149V11.9673H77.6954V22.309C77.6954 24.2506 77.5317 24.461 75.3564 24.461V25.2381H82.3148V24.461C79.9829 24.461 79.8589 24.277 79.8589 22.3688V11.9673H83.7766V10.9511H79.8589V9.09794C79.8589 6.84071 80.2308 5.67383 80.8529 4.91345C81.2856 4.43523 81.7511 4.19611 82.3732 4.19611C83.3369 4.19611 83.7275 4.87041 84.069 5.57102C84.4128 6.27162 84.7309 6.94592 85.4723 6.94592C86.036 6.94592 86.3494 6.6279 86.3494 5.98946C86.3494 5.41798 85.905 4.62173 85.0045 4.01678C84.3777 3.60311 83.6456 3.23966 82.3732 3.23966ZM148.682 3.23966C147.533 3.96895 146.462 4.33002 144.94 4.55478V5.21235C146.619 5.21235 146.811 5.46341 146.811 7.30459V22.3688C146.811 24.2099 146.743 24.461 144.94 24.461V25.2381H150.728V24.461C149.019 24.461 148.974 24.2099 148.974 22.3688V19.0212L150.67 17.2278L155.757 25.2381H159.324V24.461C158.393 24.4922 157.67 24.3797 156.985 23.2654L152.249 15.9127L155.523 12.6846C156.237 11.984 156.73 11.7592 157.628 11.7282V10.9511H153.009V11.7282C154.503 11.7282 154.314 12.2495 153.477 13.0433L149.033 17.4669H148.974V3.41899L148.682 3.23966ZM101.026 3.957H104.008C106.186 3.957 107.578 4.42088 108.452 5.15257C109.133 5.72405 109.622 7.00092 109.622 8.08171C109.622 9.60486 109.117 10.7263 108.218 11.4891C107.096 12.4431 105.332 12.864 103.19 12.864H100.091V5.03301C100.091 4.17459 100.222 3.957 101.026 3.957ZM88.8053 6.94592C88.403 10.2792 87.0815 11.0587 85.1215 11.25V11.9673H87.4604V22.3688C87.4604 24.8484 88.9176 25.5968 90.501 25.5968C91.7734 25.5968 92.7347 25.1903 93.5416 24.461L93.0738 23.7437C92.4493 24.2219 91.8646 24.5208 91.1442 24.5208C90.059 24.5208 89.6239 23.7389 89.6239 22.2492V11.9673H92.8984V10.9511H89.6239V6.94592H88.8053ZM66.9363 10.5924C64.9459 10.5924 63.47 11.1782 62.2584 12.326C61.0165 13.5622 60.3873 15.5564 60.3873 18.0647C60.3873 20.958 61.1054 22.8685 62.3169 24.0425C63.5612 25.1544 65.0745 25.5968 66.9363 25.5968C68.894 25.5968 70.3722 25.1233 71.6142 23.9828C72.7977 22.8063 73.5438 20.9269 73.5438 18.0647C73.5438 15.5564 72.8281 13.6268 71.6142 12.3858C70.4026 11.2093 69.0156 10.5924 66.9363 10.5924ZM121.141 10.5924C119.497 10.5924 118.442 11.0109 117.633 11.4891C116.636 12.0916 115.995 12.9381 115.995 13.7009C115.995 14.1815 116.281 14.6573 116.872 14.6573C117.525 14.6573 117.829 14.325 117.983 13.8802C118.266 13.1796 118.514 12.6416 118.919 12.326C119.478 11.8764 120.091 11.6086 121.024 11.6086C122.051 11.6086 122.783 11.929 123.246 12.5651C123.653 13.1055 123.772 14.0476 123.772 14.7769V16.1518L121.96 16.5702C119.969 17.0126 118.4 17.6917 117.34 18.4234C115.974 19.3416 115.411 20.4893 115.411 21.9503C115.411 23.1578 115.892 24.0354 116.639 24.6403C117.448 25.3075 118.507 25.5968 119.504 25.5968C121.555 25.5968 122.776 24.8818 123.831 23.8632H123.948C124.231 24.9081 124.911 25.4772 125.994 25.4772C126.806 25.4772 127.337 25.3121 127.865 25.0588L127.69 24.2817C127.442 24.4395 127.178 24.5208 126.871 24.5208C126.252 24.5208 125.936 23.9182 125.936 22.4883V15.016C125.936 13.6196 125.688 12.7707 124.883 11.8477C124.105 10.9606 123.007 10.5924 121.141 10.5924ZM132.602 10.5924C131.575 11.3552 130.515 11.6852 129.152 11.9075V12.6249C130.796 12.5937 130.964 12.8162 130.964 14.6573V22.3688C130.964 24.277 130.826 24.461 129.152 24.461V25.2381H134.59V24.461C133.128 24.461 133.07 24.277 133.07 22.3688V14.7171C134.314 12.9668 135.741 11.7282 137.046 11.7282C137.883 11.7282 138.451 11.9745 138.858 12.3858C139.448 13.0242 139.56 14.0165 139.56 15.2551V22.3688C139.56 24.277 139.476 24.461 137.981 24.461V25.2381H143.244V24.461C141.845 24.461 141.724 24.2075 141.724 22.4285V15.1356C141.724 13.4546 141.328 12.3092 140.613 11.6086C139.93 10.9415 138.966 10.5924 137.63 10.5924C135.921 10.5924 134.314 11.6039 133.07 13.2227H133.011L132.894 10.7717L132.602 10.5924ZM66.8778 11.6086C68.1853 11.6086 69.2612 12.0319 69.9769 12.9238C70.8142 14.0356 71.2633 15.6162 71.2633 18.0647C71.2633 20.6376 70.695 22.2468 69.9184 23.2654C69.2051 24.0904 68.2414 24.6403 66.9363 24.6403C65.6312 24.6403 64.6067 24.0904 63.8957 23.2654C63.1192 22.2468 62.6093 20.6376 62.6093 18.0647C62.6093 15.6162 63.0607 14.0356 63.8957 12.9238C64.6395 12.0319 65.6359 11.6086 66.8778 11.6086ZM100.091 14.0595H103.95C106.495 14.0595 108.242 14.5139 109.329 15.3747C110.443 16.2331 111.025 17.443 111.025 18.8418C111.025 20.4965 110.543 21.6968 109.797 22.4883C108.74 23.6026 107.327 24.0425 105.119 24.0425H101.26C100.296 24.0425 100.091 23.8202 100.091 22.4883V14.0595ZM123.772 17.1083V22.7274C122.993 23.5189 121.964 24.4012 120.439 24.4012C119.508 24.4012 118.802 24.0736 118.334 23.6241C117.866 23.1507 117.691 22.4811 117.691 21.6514C117.691 20.1928 118.528 19.3272 119.738 18.6625C120.886 17.9332 122.434 17.4884 123.772 17.1083Z" fill="#212121"/>
</svg>
