<svg width="188" height="34" viewBox="0 0 188 34" fill="none" xmlns="http://www.w3.org/2000/svg">
<path d="M10.6557 21.7531C12.5257 21.7531 13.9282 21.4414 15.019 23.031C15.6424 23.8101 15.7982 24.9321 15.7982 25.8671C15.7982 31.0408 11.6219 33.4095 6.94682 33.4095C4.29764 33.4095 0.557617 32.1628 0.557617 28.828C0.557617 27.2696 1.80429 25.9918 3.05097 25.3685C1.49262 24.901 0.557617 23.6543 0.557617 21.7531C0.557617 19.4156 1.96013 18.4494 4.14181 17.8261C2.58346 16.8911 1.49262 15.4574 1.49262 13.5874C1.49262 10.1279 4.14181 8.07087 7.38316 8.07087C9.25317 8.07087 10.4998 8.6942 11.9024 9.94087C12.6815 8.85003 13.3049 7.88386 14.7074 7.88386C15.6424 7.88386 16.4215 8.5072 16.4215 9.47337C16.4215 10.5642 15.954 11.0629 15.019 11.0629C14.084 11.0629 13.7724 9.6292 13.4607 9.6292C12.9932 9.6292 12.6815 10.2525 12.3699 10.4084C12.9932 11.1875 13.3049 12.3096 13.3049 13.4004C13.3049 15.1457 12.3699 17.0158 10.8115 17.9819C9.25317 18.9169 7.22732 18.6053 5.54431 18.6053C4.45347 18.6053 1.80429 18.7611 1.80429 20.4753C1.80429 21.4103 2.42763 21.7219 3.36263 21.7219H10.6557V21.7531ZM4.60931 25.5555C3.36263 25.5555 3.05097 27.4255 3.05097 28.5475C3.05097 31.072 4.76514 32.3187 7.25849 32.3187C10.3752 32.3187 13.3049 31.3525 14.2399 27.893C15.019 25.6801 13.3049 25.5243 11.279 25.5243H4.60931V25.5555ZM5.23265 16.0807C5.23265 17.4833 5.85598 17.9819 7.41433 17.9819C8.97267 17.9819 9.59601 17.6703 9.59601 16.0807V10.5642C9.59601 9.13053 8.81683 8.85004 7.57016 8.85004C5.85598 8.85004 5.23265 9.6292 5.23265 10.5642V16.0807ZM21.0654 15.3016V18.4183C21.0654 21.2233 21.2212 23.7478 24.4626 23.7478C27.4234 23.7478 29.4181 21.7219 30.1973 19.0728H31.2881C30.1973 22.9998 27.5793 24.5581 23.6834 24.5581C19.5071 24.5581 16.3904 20.4753 16.3904 16.4236C16.3904 12.0291 19.9434 8.1332 24.1509 8.1332C27.8598 8.1332 31.1323 10.6265 31.1323 14.5536C31.1323 15.4886 30.8206 15.3327 30.2285 15.3327H21.0654V15.3016ZM26.8001 14.3666C26.8001 11.6862 27.4234 8.8812 24.0263 8.8812C20.7537 8.8812 21.0654 11.8421 21.0654 14.3666H26.8001ZM38.9552 8.25786C36.6177 8.25786 34.1243 8.4137 32.2855 8.4137V9.3487H34.9347V23.031H32.2855V24.1218H41.4485V23.031H38.9552V17.8261C38.9552 15.9561 38.9552 14.2107 39.5785 12.8082C40.2019 11.3746 41.6044 9.50454 43.3185 9.50454C45.9677 9.50454 45.6249 12.1849 45.6249 15.9561V23.031H43.1315V24.1218H52.1388V23.031H49.6454V15.7691C49.6454 11.8421 50.1129 8.07087 45.0016 8.07087C42.0407 8.07087 40.3265 9.47337 39.0798 11.8421H38.924V8.25786H38.9552ZM57.4683 15.3016V18.4183C57.4683 21.2233 57.6241 23.7478 61.0836 23.7478C63.8887 23.7478 66.1015 21.7219 66.8807 19.0728H67.8469C66.8807 22.9998 64.0757 24.5581 60.3045 24.5581C55.91 24.5581 52.7621 20.4753 52.7621 16.4236C52.7621 12.0291 56.3775 8.1332 60.6161 8.1332C64.3873 8.1332 67.8469 10.6265 67.8469 14.5536C67.8469 15.4886 67.3793 15.3327 66.756 15.3327H57.4683V15.3016ZM63.2653 14.3666C63.2653 11.6862 63.8887 8.8812 60.4603 8.8812C57.1566 8.8812 57.4683 11.8421 57.4683 14.3666H63.2653ZM75.3269 8.25786C72.9894 8.25786 70.6519 8.4137 68.5949 8.4137V9.3487H71.0882V23.031H68.7507V24.1218H78.9111V23.031H75.3269V19.4156C75.3269 14.2419 76.2619 12.0291 77.8202 10.5954C78.2878 9.97204 78.7553 9.66037 79.5344 9.66037C79.8461 9.66037 79.8461 9.81621 79.6903 10.4395V11.094C79.6903 12.0291 80.6253 12.9641 81.5603 12.9641C82.9628 12.9641 84.0536 12.1849 84.0536 10.7512C84.0536 8.8812 82.4953 8.07087 80.9369 8.07087C77.9761 8.07087 76.7294 10.4084 75.3269 12.6212V8.25786ZM94.6192 10.2837C94.6192 9.3487 92.7492 8.8812 92.1258 8.8812C90.5675 8.8812 88.6975 9.66037 89.352 10.4395C89.5078 10.7512 89.8195 11.5304 89.8195 12.3096C89.8195 13.2446 88.8845 14.0237 87.9495 14.0237C86.8586 14.0237 85.9236 13.4004 85.9236 12.1537C85.9236 9.1617 89.8195 8.07087 92.1258 8.07087C93.84 8.07087 95.71 8.38253 97.2684 9.16171C98.3592 9.78504 98.6397 10.4084 98.6397 11.4992V21.9713C98.6397 22.5946 99.1072 22.7505 99.5747 22.7505C100.042 22.7505 100.666 22.2829 100.977 21.8154L101.445 22.4388C100.354 23.6855 99.4189 24.4646 97.7359 24.4646C96.0217 24.4646 94.9308 23.5296 94.6192 21.6596C93.2167 23.5296 91.1908 24.4646 88.8845 24.4646C86.547 24.4646 84.8328 23.218 84.8328 20.7246C84.8328 16.0184 91.1908 15.0834 94.6192 15.2392V10.2837ZM94.6192 16.0807C92.2817 16.0807 89.0091 16.3924 89.0091 19.6961C89.0091 21.4103 89.6325 22.657 91.5025 22.657C92.905 22.657 93.8089 21.5661 94.2764 20.3194C94.588 19.6961 94.588 19.0728 94.588 18.2624V16.0807H94.6192ZM103.969 8.47604H101.445V9.41104H103.969V21.2544C103.969 23.4361 104.593 24.527 108.177 24.527C110.514 24.527 112.104 23.592 113.039 21.4103L112.26 20.9428C111.792 22.0336 111.013 23.1245 109.766 23.1245C108.364 23.1245 108.177 22.1895 108.177 20.9428V9.41104H111.948V8.47604H108.177V2.866C106.774 3.02184 105.372 3.17767 103.969 3.17767V8.47604ZM134.419 8.10203C138.97 8.10203 142.741 12.0291 142.741 16.3924C142.741 20.9428 138.97 24.527 134.419 24.527C130.025 24.527 126.098 20.9428 126.098 16.3924C126.129 12.0291 130.025 8.10203 134.419 8.10203ZM134.419 8.8812C130.648 8.8812 130.804 11.9979 130.804 16.3924C130.804 21.5349 130.96 23.7478 134.419 23.7478C138.035 23.7478 138.035 21.5661 138.035 16.3924C138.035 12.0291 138.346 8.8812 134.419 8.8812ZM150.626 8.25786C148.102 8.25786 145.764 8.4137 143.707 8.4137V9.3487H146.387V23.031H143.707V24.1218H153.119V23.031H150.595V17.8261C150.595 15.9561 150.595 14.2107 151.062 12.8082C151.686 11.3746 153.275 9.50454 154.834 9.50454C157.514 9.50454 157.171 12.1849 157.171 15.9561V23.031H154.647V24.1218H163.747V23.031H161.41V15.7691C161.41 11.8421 161.721 8.07087 156.517 8.07087C153.712 8.07087 151.81 9.47337 150.564 11.8421V8.25786H150.626ZM121.485 23.0621V8.28903C119.116 8.28903 116.779 8.44487 114.41 8.44487V9.41104H117.215V23.0933H114.41V24.1841H124.446V23.0933H121.485V23.0621ZM119.116 5.14118C120.363 5.14118 121.485 4.20618 121.485 2.92833C121.485 1.68166 120.363 0.59082 119.116 0.59082C118.025 0.59082 116.935 1.68166 116.935 2.92833C116.935 4.17501 118.025 5.14118 119.116 5.14118Z" fill="black"/>
<path d="M187.558 23.623H167.455" stroke="black" stroke-width="3.629"/>
</svg>
