<svg width="119" height="40" viewBox="0 0 119 40" fill="none" xmlns="http://www.w3.org/2000/svg">
<g clip-path="url(#clip0_930_12329)">
<path d="M100.95 24.3582C101.142 23.8497 101.21 23.3026 101.147 22.7625C101.085 22.2225 100.894 21.7052 100.592 21.2538C100.281 20.8808 99.8989 20.5728 99.4686 20.3474C99.0384 20.122 98.5679 19.9837 98.0841 19.9403L77.308 19.7015C77.1886 19.7015 77.0692 19.5821 76.9498 19.5821C76.922 19.5613 76.8995 19.5342 76.8839 19.5031C76.8684 19.472 76.8603 19.4378 76.8603 19.403C76.8603 19.3683 76.8684 19.334 76.8839 19.3029C76.8995 19.2718 76.922 19.2448 76.9498 19.2239C77.0692 18.9851 77.1886 18.8657 77.4274 18.8657L98.3229 18.6269C99.6495 18.4797 100.913 17.9817 101.983 17.1843C103.053 16.3868 103.892 15.3186 104.412 14.0896L105.607 10.9851C105.607 10.9851 105.662 10.8756 105.607 10.6269C104.957 7.73545 103.382 5.13495 101.12 3.22056C98.858 1.30616 96.0328 0.182526 93.0738 0.0203903C90.1149 -0.141745 87.1838 0.666483 84.7262 2.32226C82.2685 3.97804 80.4185 6.39085 79.4573 9.19405C78.2095 8.30287 76.6875 7.88008 75.1588 8.00002C73.7559 8.15645 72.4479 8.7854 71.4498 9.78355C70.4516 10.7817 69.8227 12.0897 69.6662 13.4926C69.5867 14.2106 69.6271 14.937 69.7857 15.6418C67.5157 15.7046 65.3599 16.6505 63.7766 18.2783C62.1934 19.9061 61.3077 22.0874 61.308 24.3582C61.2885 24.7994 61.3286 25.2412 61.4274 25.6717C61.4329 25.7649 61.4724 25.8528 61.5385 25.9189C61.6045 25.9849 61.6924 26.0244 61.7857 26.0299H100.114C100.353 26.0299 100.592 25.9105 100.592 25.6717L100.95 24.3582Z" fill="#6A817C" fill-opacity="0.5"/>
<path d="M107.517 10.9844H106.92C106.8 10.9844 106.592 10.9798 106.562 11.2232L105.726 14.0889C105.534 14.5974 105.466 15.1445 105.528 15.6845C105.591 16.2246 105.781 16.7419 106.084 17.1933C106.395 17.5663 106.777 17.8743 107.207 18.0997C107.637 18.3251 108.108 18.4634 108.592 18.5068L113.009 18.7456C113.129 18.7456 113.248 18.865 113.368 18.865C113.395 18.8858 113.418 18.9129 113.434 18.944C113.449 18.975 113.457 19.0093 113.457 19.0441C113.457 19.0788 113.449 19.1131 113.434 19.1442C113.418 19.1753 113.395 19.2023 113.368 19.2232C113.248 19.462 113.129 19.5814 112.89 19.5814L108.353 19.8202C107.026 19.9674 105.763 20.4654 104.692 21.2628C103.622 22.0603 102.784 23.1285 102.263 24.3575L102.024 25.4321C101.905 25.5515 102.024 25.7903 102.263 25.7903H118.024C118.073 25.7973 118.123 25.7928 118.169 25.7773C118.216 25.7617 118.258 25.7355 118.293 25.7008C118.328 25.666 118.354 25.6237 118.37 25.577C118.385 25.5304 118.39 25.4808 118.383 25.4321C118.667 24.4205 118.827 23.378 118.86 22.3277C118.841 19.3251 117.64 16.4508 115.517 14.3277C113.394 12.2045 110.519 11.0033 107.517 10.9844Z" fill="#6A817C" fill-opacity="0.5"/>
<path d="M120.413 32.4795C120.2 32.4795 119.992 32.4165 119.816 32.2984C119.639 32.1803 119.501 32.0125 119.42 31.8161C119.338 31.6198 119.317 31.4037 119.359 31.1953C119.4 30.9868 119.502 30.7953 119.653 30.645C119.803 30.4947 119.995 30.3924 120.203 30.3509C120.411 30.3095 120.628 30.3307 120.824 30.4121C121.02 30.4934 121.188 30.6312 121.306 30.8079C121.424 30.9846 121.487 31.1924 121.487 31.4049C121.488 31.5462 121.46 31.6862 121.407 31.8168C121.353 31.9475 121.274 32.0662 121.174 32.1661C121.074 32.266 120.955 32.3451 120.825 32.3989C120.694 32.4527 120.554 32.4801 120.413 32.4795ZM120.413 30.5691C120.247 30.5691 120.086 30.6181 119.948 30.7099C119.811 30.8018 119.704 30.9323 119.64 31.0851C119.577 31.2378 119.561 31.4058 119.593 31.568C119.625 31.7301 119.705 31.879 119.822 31.9959C119.939 32.1128 120.087 32.1924 120.25 32.2247C120.412 32.2569 120.58 32.2404 120.732 32.1771C120.885 32.1138 121.016 32.0067 121.108 31.8693C121.199 31.7318 121.248 31.5702 121.248 31.4049C121.251 31.2944 121.231 31.1845 121.19 31.0819C121.149 30.9793 121.088 30.8861 121.01 30.8079C120.931 30.7297 120.838 30.6683 120.736 30.6272C120.633 30.5862 120.523 30.5664 120.413 30.5691ZM120.89 32.0019H120.651L120.413 31.6437H120.174V32.0019H119.935V30.9273H120.532C120.581 30.9203 120.63 30.9248 120.677 30.9404C120.724 30.9559 120.766 30.9821 120.801 31.0169C120.835 31.0516 120.862 31.094 120.877 31.1406C120.893 31.1872 120.897 31.2368 120.89 31.2855C120.89 31.4049 120.771 31.5243 120.651 31.6437L120.89 32.0019ZM120.532 31.4049C120.651 31.4049 120.651 31.4049 120.651 31.2855C120.652 31.2697 120.649 31.2541 120.643 31.2394C120.637 31.2248 120.628 31.2115 120.617 31.2003C120.606 31.1892 120.593 31.1804 120.578 31.1745C120.563 31.1686 120.548 31.1658 120.532 31.1661H120.174V31.5243H120.532V31.4049ZM13.4276 30.3303H16.0545V37.4945H20.5918V39.7631H13.4276V30.3303ZM23.338 34.987C23.3381 34.3238 23.4727 33.6674 23.7338 33.0577C23.995 32.448 24.3771 31.8977 24.8571 31.44C25.3371 30.9823 25.905 30.6268 26.5264 30.395C27.1479 30.1632 27.8099 30.06 28.4724 30.0915C29.1287 30.0619 29.7841 30.1674 30.398 30.4014C31.0119 30.6354 31.5712 30.9929 32.0413 31.4519C32.5114 31.9108 32.8823 32.4613 33.1311 33.0694C33.3798 33.6775 33.501 34.3302 33.4873 34.987C33.4872 35.6502 33.3526 36.3066 33.0915 36.9163C32.8304 37.526 32.4482 38.0763 31.9682 38.534C31.4882 38.9917 30.9203 39.3472 30.2989 39.579C29.6775 39.8108 29.0155 39.914 28.353 39.8825C27.6992 39.902 27.0482 39.7895 26.4388 39.5519C25.8295 39.3142 25.2742 38.9563 24.8062 38.4994C24.3382 38.0425 23.9669 37.4961 23.7147 36.8926C23.4625 36.2891 23.3344 35.641 23.338 34.987ZM30.8604 34.987C30.8838 34.656 30.8399 34.3237 30.7312 34.0101C30.6225 33.6966 30.4514 33.4084 30.2282 33.1628C30.005 32.9173 29.7343 32.7196 29.4325 32.5816C29.1307 32.4436 28.8041 32.3683 28.4724 32.3601C27.8285 32.3916 27.2214 32.6695 26.7768 33.1363C26.3323 33.603 26.0843 34.223 26.0843 34.8676C26.0843 35.5122 26.3323 36.1321 26.7768 36.5989C27.2214 37.0657 27.8285 37.3436 28.4724 37.3751C29.9052 37.6139 30.8604 36.4198 30.8604 34.987ZM36.7112 35.584V30.3303H39.338V35.584C39.338 36.8974 40.0545 37.6139 41.1291 37.6139C41.3801 37.6347 41.6325 37.5986 41.8675 37.5081C42.1026 37.4177 42.3141 37.2753 42.4864 37.0915C42.6586 36.9078 42.7871 36.6875 42.8622 36.4472C42.9373 36.2068 42.9571 35.9525 42.9201 35.7034V30.3303H45.547V35.584C45.547 38.6885 43.7559 40.0019 41.1291 40.0019C38.3828 39.8825 36.7112 38.5691 36.7112 35.584ZM49.4873 30.3303H53.1888C56.5321 30.3303 58.5619 32.2407 58.5619 34.987C58.5619 37.7333 56.5321 39.7631 53.1888 39.7631H49.6067V30.3303H49.4873ZM53.1888 37.3751C53.5215 37.4068 53.8572 37.3687 54.1744 37.2631C54.4915 37.1576 54.7831 36.9869 55.0304 36.762C55.2777 36.5372 55.4753 36.2632 55.6106 35.9575C55.7458 35.6518 55.8156 35.3212 55.8156 34.987C55.8156 34.6527 55.7458 34.3222 55.6106 34.0165C55.4753 33.7108 55.2777 33.4368 55.0304 33.2119C54.7831 32.9871 54.4915 32.8164 54.1744 32.7109C53.8572 32.6053 53.5215 32.5672 53.1888 32.5989H52.1142V37.3751H53.1888ZM62.2634 30.3303H69.7858V32.5989H64.8903V34.1512H69.3082V36.3004H64.8903V39.7631H62.2634V30.3303ZM73.4873 30.3303H76.1141V37.4945H80.6514V39.7631H73.4873V30.3303ZM87.4574 30.2109H90.0843L94.144 39.7631H91.2783L90.5619 38.0915H86.8604L86.144 39.7631H83.3977L87.4574 30.2109ZM89.8455 36.0616L88.7709 33.4348L87.6962 36.0616H89.8455ZM97.4873 30.3303H101.905C102.469 30.2845 103.036 30.3565 103.57 30.5414C104.105 30.7264 104.595 31.0205 105.01 31.4049C105.352 31.7738 105.6 32.2196 105.733 32.7047C105.867 33.1897 105.881 33.6998 105.776 34.1917C105.671 34.6836 105.448 35.1429 105.128 35.5308C104.807 35.9186 104.398 36.2235 103.935 36.4198L106.204 39.7631H103.219L101.308 36.8974H100.114V39.7631H97.4873V30.3303ZM101.786 34.8676C102.622 34.8676 103.219 34.39 103.219 33.793C103.219 33.0765 102.622 32.7183 101.786 32.7183H100.114V34.987H101.786V34.8676ZM109.547 30.3303H117.189V32.4795H112.174V33.9124H116.711V36.0616H112.174V37.4945H117.308V39.7631H109.547V30.3303ZM7.69625 36.181C7.51617 36.603 7.21693 36.9633 6.83519 37.2178C6.45345 37.4723 6.00578 37.6099 5.547 37.6139C4.90314 37.5824 4.29605 37.3045 3.85148 36.8377C3.40691 36.3709 3.15894 35.751 3.15894 35.1064C3.15894 34.4618 3.40691 33.8419 3.85148 33.3751C4.29605 32.9083 4.90314 32.6304 5.547 32.5989C6.03531 32.6083 6.51022 32.7602 6.91329 33.036C7.31637 33.3118 7.63002 33.6994 7.81566 34.1512H10.5619C10.327 33.0074 9.69427 31.9839 8.77613 31.2625C7.85799 30.5411 6.71388 30.1685 5.547 30.2109C4.88697 30.1894 4.22927 30.2996 3.61229 30.5351C2.9953 30.7705 2.43138 31.1265 1.95344 31.5822C1.4755 32.0379 1.0931 32.5842 0.828564 33.1893C0.564027 33.7944 0.422647 34.4461 0.412675 35.1064C0.408999 35.7604 0.537102 36.4085 0.789341 37.012C1.04158 37.6155 1.41279 38.1619 1.88082 38.6188C2.34884 39.0757 2.9041 39.4337 3.51347 39.6713C4.12284 39.9089 4.77383 40.0214 5.4276 40.0019C6.56844 40.0096 7.67963 39.6387 8.58711 38.9473C9.4946 38.2559 10.1471 37.283 10.4425 36.181H7.69625Z" fill="#6A817C" fill-opacity="0.5"/>
</g>
<defs>
<clipPath id="clip0_930_12329">
<rect width="121.075" height="40" fill="white" transform="translate(0.412598)"/>
</clipPath>
</defs>
</svg>
