<svg width="96" height="30" viewBox="0 0 96 30" fill="none" xmlns="http://www.w3.org/2000/svg">
<g clip-path="url(#clip0_930_12326)">
<path d="M30.281 6.31641C25.7415 6.31641 22.2876 9.57298 22.2876 14.2111C22.2876 18.8493 25.7415 22.1059 30.281 22.1059C32.4521 22.1059 34.1297 21.119 34.8205 20.3296V21.9085H38.3731V6.51377H34.8205V8.09272C34.1297 7.30325 32.3534 6.31641 30.281 6.31641ZM30.3797 18.8493C27.7152 18.8493 25.7415 16.7769 25.7415 14.2111C25.7415 11.6454 27.8139 9.57298 30.3797 9.57298C32.9455 9.57298 34.9192 11.6454 34.9192 14.2111C34.9192 16.7769 32.9455 18.8493 30.3797 18.8493ZM60.8731 6.31641C58.8008 6.31641 57.2218 7.10588 56.235 8.09272V6.51377H52.781V30.0006L56.235 29.6059V20.2309C57.2218 21.3164 58.8994 22.0072 60.8731 22.0072C65.61 22.0072 68.7679 18.948 68.7679 14.1125C68.7679 9.37562 65.61 6.31641 60.8731 6.31641ZM60.7744 18.8493C58.0113 18.8493 56.235 16.8756 56.235 14.2111C56.235 11.5467 58.0113 9.57298 60.7744 9.57298C63.5376 9.57298 65.4126 11.5467 65.4126 14.2111C65.3139 16.8756 63.5376 18.8493 60.7744 18.8493ZM95.4126 6.31641C93.2415 6.31641 92.0573 7.10588 91.3665 8.09272V6.51377H87.9126V21.9085H91.3665V13.4217C91.3665 11.1519 92.9455 9.57298 95.1165 9.57298H95.4126V6.31641ZM78.0442 6.31641C73.5047 6.31641 69.9521 9.86904 69.9521 14.2111C69.9521 18.5532 73.5047 22.1059 78.0442 22.1059C81.7942 22.1059 84.8534 20.0335 85.8402 17.2704H81.6955C81.2021 18.2572 79.9192 18.948 78.0442 18.948C75.7744 18.948 73.9981 17.369 73.6034 15.3954H85.9389C86.0376 15.0006 86.0376 14.6059 86.0376 14.2111C86.0376 9.86904 82.485 6.31641 78.0442 6.31641ZM73.8008 12.3361C74.2942 10.7572 75.9718 9.4743 78.0442 9.4743C80.0179 9.4743 81.7942 10.7572 82.2876 12.3361H73.8008ZM45.7744 9.37562C45.0837 9.37562 44.2942 9.67167 44.2942 10.5598C44.2942 11.5467 45.281 11.8427 47.156 12.5335C49.7218 13.5204 51.0047 14.7046 51.0047 17.073C51.0047 19.5401 48.9323 22.1059 45.3797 22.1059C41.8271 22.1059 39.9521 19.4414 39.8534 17.2704H43.2086C43.406 18.2572 44.1955 19.0467 45.3797 19.0467C46.6626 19.0467 47.4521 18.1585 47.4521 17.1717C47.4521 16.4809 47.156 15.6914 44.985 15.0993C42.6165 14.5072 40.9389 13.2243 40.9389 10.6585C40.9389 8.29009 43.0113 6.41509 45.6758 6.41509C48.0442 6.41509 49.5244 8.09272 50.2152 9.17825L47.3534 10.4611C46.9587 9.67167 46.3665 9.37562 45.7744 9.37562Z" fill="#6A817C" fill-opacity="0.5"/>
<path d="M11.8271 0C5.51131 0 0.675781 4.93421 0.675781 11.0526C0.675781 17.1711 5.51131 22.1053 11.8271 22.1053C15.8732 22.1053 19.6231 19.9342 21.3008 16.875L18.0442 15.0987C16.7613 17.3684 14.5903 18.6513 11.8271 18.6513C9.85341 18.6513 7.87973 17.8618 6.59683 16.4803C5.21526 15 4.42578 13.125 4.42578 11.1513C4.42578 9.17763 5.21526 7.30263 6.59683 5.82237C7.87973 4.44079 9.75473 3.65132 11.8271 3.65132C13.9982 3.65132 15.281 4.34211 16.1692 5.0329C17.156 5.72368 18.1429 6.41447 19.8205 6.41447C22.8797 6.41447 24.2613 3.94737 24.5574 2.66447L21.1034 1.97368C21.1034 2.07237 20.8074 3.05921 19.8205 3.05921C19.3271 3.05921 19.031 2.86184 18.3403 2.36842C17.0574 1.18421 15.3797 0 11.8271 0Z" fill="#6A817C" fill-opacity="0.5"/>
</g>
<defs>
<clipPath id="clip0_930_12326">
<rect width="94.7368" height="30" fill="white" transform="translate(0.675781)"/>
</clipPath>
</defs>
</svg>
