<svg width="137" height="18" viewBox="0 0 137 18" fill="none" xmlns="http://www.w3.org/2000/svg">
<g clip-path="url(#clip0_930_12319)">
<path d="M0.138184 0.826905H5.16923L8.91071 11.143L12.5975 0.826905H17.5377L10.9084 17.2638H6.74918L0.138184 0.826905ZM18.3187 0.826905H22.8229V17.1184H18.3187V0.826905ZM30.5235 0.717891H34.8824L41.8386 17.1548H36.9895L35.8089 14.2305H29.5248L28.3444 17.1548H23.6403L30.5235 0.717891ZM34.5013 10.6708L32.6849 6.0396L30.8687 10.6708H34.5013ZM40.2951 9.01812V8.98174C40.2951 4.2051 43.9454 0.5 48.8858 0.5C52.2094 0.5 54.3708 1.89844 55.8056 3.86L52.3912 6.52982C51.4651 5.38565 50.4113 4.64088 48.8493 4.64088C46.579 4.64088 44.9446 6.60245 44.9446 8.98174V9.01812C44.9446 11.452 46.579 13.377 48.8493 13.377C50.5203 13.377 51.5192 12.5962 52.5183 11.4156L55.9327 13.831C54.3889 15.956 52.3183 17.4999 48.7222 17.4999C44.0545 17.4636 40.2951 13.9038 40.2951 9.01812ZM55.3151 9.01812V8.98174C55.3151 4.29592 59.1112 0.5 64.142 0.5C69.1729 0.5 72.8963 4.25954 72.8963 8.94549V8.98174C72.8963 13.6675 69.1003 17.4636 64.0692 17.4636C59.0386 17.4636 55.3151 13.6859 55.3151 9.01812ZM68.283 9.01812V8.98174C68.283 6.60245 66.594 4.5502 64.1241 4.5502C61.6538 4.5502 59.9829 6.5662 59.9829 8.94549V8.98174C59.9829 11.3065 61.672 13.377 64.1785 13.377C66.6304 13.3406 68.283 11.3612 68.283 9.01812ZM88.8788 8.78204V8.72746C88.8788 6.54801 89.6783 3.93263 91.0403 2.44337V0.863151H86.2273L82.3224 7.14738L78.4358 0.863151H73.6591V17.1548H78.0907V7.81938L82.2316 14.1942H82.3223L86.518 7.81938V17.173H91.0223V15.1388C89.6963 13.6313 88.8788 11.0523 88.8788 8.78204Z" fill="#6A817C" fill-opacity="0.5"/>
<path d="M122.661 14.7028L125.167 11.7243C126.784 12.9957 128.582 13.6859 130.489 13.6859C131.724 13.6859 132.378 13.2863 132.378 12.5417V12.5053C132.378 11.8151 131.833 11.47 129.617 10.9251C126.148 10.1259 123.442 9.18157 123.442 5.80338V5.76699C123.442 2.75208 125.858 0.572493 129.762 0.572493C132.523 0.572493 134.666 1.35351 136.464 2.75195L134.176 5.93044C132.705 4.85891 131.052 4.31411 129.617 4.31411C128.491 4.31411 127.983 4.7499 127.983 5.34927V5.38565C127.983 6.13028 128.564 6.45718 130.852 6.96573C134.594 7.80119 136.919 8.99993 136.919 12.0512V12.0876C136.919 15.4112 134.303 17.3729 130.344 17.3729C127.383 17.4272 124.659 16.4828 122.661 14.7028ZM107.623 0.826905H115.977C118.048 0.826905 119.446 1.33545 120.427 2.26159C121.117 2.98817 121.498 3.93263 121.462 4.91335V4.94959C121.462 6.83853 120.39 7.9645 118.938 8.56387C120.917 9.21782 122.189 10.3438 122.189 12.5777V12.6141C122.189 15.3929 119.918 17.1184 116.014 17.1184H107.623V0.826905ZM117.031 5.85781C117.031 4.93154 116.304 4.45924 114.96 4.45924H112V7.31069H114.869C116.213 7.31069 117.031 6.82034 117.031 5.91225V5.85781ZM115.469 10.5075H112.018V13.4862H115.56C116.958 13.4862 117.721 12.9411 117.721 11.9966V11.9603C117.685 11.0887 116.994 10.5075 115.469 10.5075ZM90.9678 9.01812V8.98174C90.9678 4.2051 94.5821 0.5 99.5588 0.5C102.882 0.5 105.044 1.89844 106.479 3.86L103.064 6.52982C102.138 5.38565 101.084 4.64088 99.5041 4.64088C97.1976 4.64088 95.5991 6.60245 95.5991 8.98174V9.01812C95.5991 11.452 97.2155 13.377 99.5041 13.377C101.175 13.377 102.174 12.5962 103.173 11.4156L106.587 13.831C105.044 15.956 102.973 17.4999 99.3767 17.4999C94.7275 17.4636 90.9678 13.9038 90.9678 9.01812Z" fill="#6A817C" fill-opacity="0.5"/>
</g>
<defs>
<clipPath id="clip0_930_12319">
<rect width="136.78" height="17" fill="white" transform="translate(0.138184 0.5)"/>
</clipPath>
</defs>
</svg>
