<svg width="114" height="16" viewBox="0 0 114 16" fill="none" xmlns="http://www.w3.org/2000/svg">
<g clip-path="url(#clip0_930_12306)">
<path d="M15.9663 7.98416C15.9663 3.63463 19.5546 0.125 24.0472 0.125C28.57 0.125 32.1581 3.63463 32.1581 7.98416C32.1581 12.3035 28.57 15.8731 24.0472 15.8731C19.5546 15.8731 15.9663 12.2735 15.9663 7.98416ZM28.2987 7.98416C28.2987 5.82461 26.399 3.90438 24.0472 3.90438C21.7254 3.90438 19.8561 5.82461 19.8561 7.98416C19.8561 10.1739 21.7556 12.0937 24.0472 12.0937C26.399 12.0937 28.2987 10.1739 28.2987 7.98416Z" fill="#6A817C" fill-opacity="0.5"/>
<path d="M97.1465 8.10382C97.1465 3.33447 101.051 0.125 104.591 0.125C107.013 0.125 108.405 0.844774 109.343 2.25503L109.706 0.395198H113.338V15.5733H109.706L109.252 14.0132C108.193 15.1533 106.861 15.8731 104.622 15.8731C101.081 15.8731 97.1465 12.8135 97.1465 8.10382ZM109.495 8.07385C109.495 5.76466 107.587 3.90438 105.227 3.90438C102.897 3.90438 101.021 5.79464 101.021 8.13447C101.021 10.2339 102.927 12.1237 105.227 12.1237C107.618 12.0937 109.495 10.2039 109.495 8.07385Z" fill="#6A817C" fill-opacity="0.5"/>
<path d="M92.7937 2.24849V0.508548H88.9399V15.4293H92.7937V7.37886C92.7937 4.96105 93.9703 3.693 96.0584 3.693C96.2053 3.693 96.3234 3.693 96.4408 3.72253L97.1468 0.125C95.1468 0.154521 93.7052 0.832606 92.7937 2.24849Z" fill="#6A817C" fill-opacity="0.5"/>
<path d="M53.4299 2.24849V0.508548H49.4585L49.4889 15.4293H53.4608L53.4299 7.37886C53.4299 4.96105 54.6427 3.693 56.7653 3.693C56.9168 3.693 57.0378 3.693 57.1597 3.72253L57.8871 0.125C55.8251 0.154521 54.3398 0.832606 53.4299 2.24849Z" fill="#6A817C" fill-opacity="0.5"/>
<path d="M33.7109 9.6396V0.347656H37.589V9.15983C37.589 11.108 38.6549 12.2469 40.52 12.2469C42.5923 12.2469 43.8063 10.9584 43.8063 8.50067V0.347656H47.6843V15.5139H43.8063V13.746C42.8884 15.1844 41.4083 15.8737 39.3655 15.8737C35.8721 15.9037 33.7109 13.3561 33.7109 9.6396Z" fill="#6A817C" fill-opacity="0.5"/>
<path d="M71.8608 7.96946C71.8608 3.71775 74.9304 0.0952128 79.7448 0.125185C84.2277 0.125185 87.3871 3.71775 87.3871 7.90908C87.3871 8.32846 87.3569 8.77758 87.2968 9.16699L75.7126 9.13701C76.1642 10.9633 77.6682 12.2505 79.9251 12.2805C81.309 12.2805 82.7837 11.7714 83.6862 10.6336L86.3645 12.7895C84.9799 14.7352 82.5428 15.873 79.9553 15.873C75.3813 15.8133 71.8608 12.4001 71.8608 7.96946ZM83.4457 6.41251C83.2346 4.8853 81.6102 3.68777 79.7448 3.68777C77.9093 3.68777 76.4346 4.76564 75.8629 6.38254L83.4457 6.41251Z" fill="#6A817C" fill-opacity="0.5"/>
<path d="M57.8872 12.294L61.3851 10.4747C61.958 11.7273 63.1339 12.443 64.7618 12.443C66.2696 12.443 66.8427 11.9657 66.8427 11.3097C66.8427 8.89368 58.5204 10.3555 58.5204 4.8076C58.5204 1.73582 61.2344 0.125 64.5811 0.125C67.1138 0.125 69.3752 1.22855 70.6115 3.31666L67.1438 5.13593C66.6318 4.12185 65.6666 3.55509 64.4303 3.55509C63.2242 3.55509 62.6514 3.97289 62.6514 4.65864C62.6514 7.01492 70.9736 5.52331 70.9736 11.1607C70.9736 14.0835 68.5615 15.8731 64.6714 15.8731C61.3549 15.8433 59.0331 14.7695 57.8872 12.294Z" fill="#6A817C" fill-opacity="0.5"/>
<path d="M0.662109 7.90303C0.662109 3.58506 4.22035 0.125 8.67561 0.125C11.5461 0.125 14.028 1.54495 15.4632 3.67362L12.1143 5.59633C11.3367 4.53176 10.1109 3.82213 8.67561 3.82213C6.37321 3.82213 4.51935 5.71463 4.51935 7.87351C4.51935 10.0319 6.40307 11.9244 8.67561 11.9244C10.1706 11.9244 11.4863 11.1558 12.204 10.0024L15.523 11.954C14.1177 14.1721 11.576 15.6511 8.67561 15.6511C4.22035 15.6806 0.662109 12.132 0.662109 7.90303Z" fill="#6A817C" fill-opacity="0.5"/>
</g>
<defs>
<clipPath id="clip0_930_12306">
<rect width="112.676" height="16" fill="white" transform="translate(0.662109)"/>
</clipPath>
</defs>
</svg>
