<svg width="60" height="36" viewBox="0 0 60 36" fill="none" xmlns="http://www.w3.org/2000/svg">
<g clip-path="url(#clip0_930_12316)">
<path d="M27.9664 32.6713C28.1044 32.7896 28.2524 32.908 28.3954 33.0264C25.5795 34.9003 22.2014 35.9951 18.5669 35.9951C8.76307 35.9951 0.813477 28.0455 0.813477 18.2417C0.813477 8.43787 8.76307 0.488281 18.5669 0.488281C22.2014 0.488281 25.5795 1.58308 28.3954 3.45705C28.2524 3.5754 28.1044 3.68883 27.9664 3.81212C23.7844 7.45157 21.3828 12.7135 21.3828 18.2417C21.3828 23.7699 23.7795 29.0318 27.9664 32.6713ZM40.5121 0.488281C36.8776 0.488281 33.4995 1.58308 30.6836 3.45705C30.8266 3.5754 30.9746 3.68883 31.1127 3.81212C35.2946 7.45157 37.6962 12.7086 37.6962 18.2417C37.6962 23.7749 35.2995 29.0318 31.1176 32.6713C30.9795 32.7896 30.8316 32.908 30.6886 33.0264C33.5044 34.9003 36.8825 35.9951 40.517 35.9951C50.3209 35.9951 58.2705 28.0455 58.2705 18.2417C58.2705 8.43787 50.3209 0.488281 40.517 0.488281H40.5121ZM29.5395 4.29047C29.3127 4.46801 29.0858 4.6554 28.8688 4.84773C25.1258 8.10253 22.7587 12.896 22.7587 18.2417C22.7587 23.5875 25.1258 28.3809 28.8688 31.6357C29.0858 31.828 29.3127 32.0105 29.5395 32.1929C29.7664 32.0105 29.9932 31.828 30.2102 31.6357C33.9532 28.3809 36.3203 23.5875 36.3203 18.2417C36.3203 12.896 33.9532 8.10253 30.2102 4.84773C29.9932 4.6554 29.7664 4.47294 29.5395 4.29047Z" fill="#6A817C" fill-opacity="0.5"/>
</g>
<defs>
<clipPath id="clip0_930_12316">
<rect width="58.8" height="36" fill="white" transform="translate(0.338379)"/>
</clipPath>
</defs>
</svg>
