<svg width="137" height="26" viewBox="0 0 137 26" fill="none" xmlns="http://www.w3.org/2000/svg">
<path d="M21.8297 0.179094L5.94367 3.4131C5.81367 3.4431 5.71167 3.55909 5.71167 3.70709V9.9251C5.71167 10.0711 5.81367 10.1891 5.94367 10.2191L21.8297 13.4531C22.0037 13.4831 22.1777 13.3511 22.1777 13.1591V0.459096C22.1777 0.283096 22.0037 0.135094 21.8297 0.179094Z" fill="#6A817C" fill-opacity="0.5"/>
<path d="M1.11167 25.8711L16.9977 22.6371C17.1277 22.6071 17.2297 22.4911 17.2297 22.3431V16.1251C17.2297 15.9791 17.1277 15.8611 16.9977 15.8311L1.11167 12.5991C0.937673 12.5691 0.763672 12.7011 0.763672 12.8931V25.5631C0.763672 25.7691 0.923673 25.9011 1.11167 25.8711Z" fill="#6A817C" fill-opacity="0.5"/>
<path d="M30.9897 16.9651C30.9897 16.7011 31.2797 16.5391 31.4957 16.6711C33.7097 18.0231 36.3277 18.6251 37.9197 18.6251C39.6557 18.6251 40.9437 17.9191 40.9437 16.2731C40.9437 14.2291 38.9037 14.0531 36.1117 13.1271C33.1177 12.1271 30.4117 10.6291 30.4117 6.79309C30.4117 2.67709 33.4797 0.121094 38.0357 0.121094C40.1037 0.121094 42.6077 0.635093 44.4877 1.60509C44.6037 1.66309 44.6617 1.7811 44.6617 1.9131V5.89709C44.6617 6.16109 44.3877 6.32309 44.1557 6.19109C41.9717 4.94109 39.5557 4.3531 37.9917 4.3531C36.3717 4.3531 35.1997 4.9551 35.1997 6.4251C35.1997 8.3791 37.2117 8.52709 39.8157 9.40909C43.0857 10.5111 45.7337 12.0551 45.7337 15.9651C45.7337 20.2571 42.5217 22.8591 37.8477 22.8591C35.7497 22.8591 33.1737 22.3451 31.1637 21.3451C31.0477 21.2871 30.9757 21.1691 30.9757 21.0371V16.9651H30.9897Z" fill="#6A817C" fill-opacity="0.5"/>
<path d="M52.9377 16.2451C52.7057 16.2451 52.5477 16.4811 52.6197 16.7151C53.2557 18.4651 54.8337 19.2731 56.7717 19.2731C58.2477 19.2731 59.8397 18.8171 61.2717 17.9511C61.5037 17.8191 61.7777 17.9811 61.7777 18.2451V21.3031C61.7777 21.4211 61.7197 21.5391 61.6177 21.5971C60.1717 22.4491 58.0437 22.8751 56.1637 22.8751C51.3017 22.8751 47.7857 19.8031 47.7857 15.0991C47.7857 10.3071 51.4457 7.2071 55.5257 7.2071C59.1577 7.2071 62.5717 9.64709 62.5717 14.6731C62.5717 15.0691 62.5577 15.5691 62.5137 15.9511C62.4997 16.1271 62.3537 16.2591 62.1817 16.2591H52.9377V16.2451ZM57.9717 13.3191C58.2037 13.3191 58.3617 13.0991 58.2897 12.8771C57.8997 11.5251 56.8137 10.7311 55.4837 10.7311C54.2097 10.7311 53.0817 11.4511 52.5897 12.8631C52.5177 13.0831 52.6757 13.3191 52.9077 13.3191H57.9717Z" fill="#6A817C" fill-opacity="0.5"/>
<path d="M65.5677 8.7491V22.1831C65.5677 22.3751 65.7117 22.5211 65.8997 22.5211H69.7917C69.9797 22.5211 70.1237 22.3751 70.1237 22.1831V7.9551C70.1237 7.7351 69.9357 7.5731 69.7177 7.61709L65.8257 8.4111C65.6837 8.4551 65.5677 8.5871 65.5677 8.7491Z" fill="#6A817C" fill-opacity="0.5"/>
<path d="M73.4817 18.1411C73.4817 17.8911 73.7557 17.7151 73.9737 17.8471C75.8977 18.8611 78.0097 19.3031 79.2977 19.3031C80.5557 19.3031 81.3097 18.9651 81.3097 18.1411C81.3097 16.9791 79.6597 17.0971 77.4317 16.5251C74.6397 15.8191 72.9897 14.6291 72.9897 12.1591C73.0177 8.98509 75.7817 7.19109 79.4417 7.19109C81.1497 7.19109 83.2317 7.52909 84.8817 8.29309C84.9977 8.35109 85.0697 8.4691 85.0697 8.6011V11.8051C85.0697 12.0551 84.8097 12.2171 84.5777 12.1131C82.7397 11.1731 80.7297 10.7611 79.5137 10.7611C78.3137 10.7611 77.5897 11.1291 77.5897 11.8331C77.5897 12.9351 79.1817 12.8331 81.3657 13.3911C84.1877 14.0971 85.8937 15.1851 85.8937 17.7851C85.8657 21.0771 83.0437 22.8711 79.2677 22.8711C77.5597 22.8711 75.3757 22.5331 73.6397 21.7091C73.5237 21.6511 73.4517 21.5331 73.4517 21.4011V18.1391H73.4817V18.1411Z" fill="#6A817C" fill-opacity="0.5"/>
<path d="M111.014 8.6891C110.146 7.7771 108.858 7.1891 107.21 7.1891C105.46 7.1891 103.81 7.80709 102.306 9.08509C102.162 9.20309 101.944 9.1731 101.828 9.0271C100.902 7.7491 99.2097 7.20509 97.7337 7.20509C95.9397 7.20509 94.4357 7.93909 93.2917 8.90909L93.2337 8.87909V7.95309C93.2337 7.73309 93.0457 7.57109 92.8277 7.61509L88.9937 8.3951C88.8337 8.4251 88.7197 8.5711 88.7197 8.7331V22.1971C88.7197 22.3891 88.8637 22.5351 89.0517 22.5351H92.9437C93.1317 22.5351 93.2757 22.3891 93.2757 22.1971V12.5691C93.2757 12.4671 93.3197 12.3631 93.4057 12.3051C94.1437 11.7031 95.1717 11.1871 96.1697 11.1871C96.7637 11.1871 97.3117 11.3631 97.7317 11.8331C98.1217 12.2591 98.2677 12.8771 98.2677 13.8771V22.1971C98.2677 22.3891 98.4117 22.5351 98.5997 22.5351H102.492C102.68 22.5351 102.824 22.3891 102.824 22.1971V13.1131C102.824 12.9511 102.824 12.7751 102.81 12.6131C102.796 12.5111 102.838 12.3931 102.926 12.3331C103.692 11.6871 104.706 11.2011 105.704 11.2011C106.298 11.2011 106.848 11.3771 107.266 11.8471C107.628 12.2431 107.802 12.7591 107.802 13.8911V22.2111C107.802 22.4031 107.946 22.5491 108.134 22.5491H112.026C112.214 22.5491 112.358 22.4011 112.358 22.2111V13.1271C112.374 10.9831 111.956 9.6591 111.014 8.6891Z" fill="#6A817C" fill-opacity="0.5"/>
<path d="M136.29 21.5071C136.29 21.6391 136.218 21.7571 136.116 21.8151C134.742 22.5351 133.078 22.8731 131.456 22.8731C126.71 22.8731 123.238 19.5811 123.238 15.0691C123.238 10.3511 127.072 7.20509 131.702 7.20509C133.264 7.20509 134.726 7.55709 135.898 8.11709C136.014 8.17509 136.086 8.2931 136.086 8.4251V11.9091C136.086 12.1731 135.81 12.3351 135.58 12.2031C134.408 11.5271 133.15 11.1011 131.904 11.1011C129.474 11.1011 127.796 12.7771 127.796 15.0411C127.796 17.3331 129.502 18.9351 131.962 18.9351C133.206 18.9351 134.624 18.5231 135.768 17.8031C135.986 17.6571 136.274 17.8331 136.274 18.0971V21.5071H136.29Z" fill="#6A817C" fill-opacity="0.5"/>
<path d="M115.804 8.7491V22.1831C115.804 22.3751 115.948 22.5211 116.136 22.5211H120.028C120.216 22.5211 120.36 22.3731 120.36 22.1831V7.9551C120.36 7.7351 120.172 7.5731 119.954 7.61709L116.062 8.4111C115.918 8.4551 115.804 8.5871 115.804 8.7491Z" fill="#6A817C" fill-opacity="0.5"/>
<path d="M67.8397 5.4271C69.2777 5.4271 70.4437 4.24309 70.4437 2.78109C70.4437 1.31909 69.2777 0.135092 67.8397 0.135092C66.4017 0.135092 65.2357 1.31909 65.2357 2.78109C65.2357 4.24309 66.4017 5.4271 67.8397 5.4271Z" fill="#6A817C" fill-opacity="0.5"/>
<path d="M118.076 5.4271C119.514 5.4271 120.68 4.24309 120.68 2.78109C120.68 1.31909 119.514 0.135092 118.076 0.135092C116.636 0.135092 115.47 1.31909 115.47 2.78109C115.47 4.24309 116.636 5.4271 118.076 5.4271Z" fill="#6A817C" fill-opacity="0.5"/>
</svg>
