<svg width="127" height="36" viewBox="0 0 127 36" fill="none" xmlns="http://www.w3.org/2000/svg">
<path d="M67.2076 16.7398C67.2076 20.3398 65.9794 21.9418 63.216 21.9418C60.4525 21.9418 59.2244 20.3398 59.2244 16.7398V6.83984H55.5488V17.1268C55.5488 22.4458 58.2671 25.3708 63.216 25.3708C68.1648 25.3708 70.8831 22.4458 70.8831 17.1268V6.83984H67.2076V16.7488V16.7398Z" fill="#BBC4C2"/>
<path d="M87.6974 15.7946C87.6974 20.1416 84.8527 22.0946 82.0351 22.0946C78.4138 22.0946 76.5264 18.9266 76.5264 15.7946C76.5264 11.7086 79.2988 9.57559 82.0351 9.57559C85.3675 9.57559 87.6974 12.1316 87.6974 15.7946ZM82.6763 6.30859C80.2109 6.30859 78.0255 7.47859 76.5173 9.62059V6.83959H72.8418V32.7236H76.5173V22.1666C78.0074 24.2096 80.1748 25.3706 82.5228 25.3706C85.1417 25.3706 87.3633 24.3626 88.9437 22.4456C90.3886 20.6996 91.1833 18.2966 91.1833 15.6956C91.1833 13.2296 90.3706 10.9166 88.8895 9.17959C87.3272 7.33459 85.1146 6.31759 82.6763 6.31759" fill="#BBC4C2"/>
<path d="M37.2611 7.2448C37.2611 7.2448 37.1979 7.1998 37.1888 7.1908C36.2858 6.6148 35.2562 6.2998 34.299 6.2998C32.1226 6.2998 30.3616 7.4518 29.4314 9.4858V6.8308H25.7559V24.7588H29.4314V15.9478C29.4314 13.0858 29.892 9.8008 33.4591 9.8008C34.019 9.8008 34.4977 9.8998 34.904 10.1068L37.2521 7.2448H37.2611Z" fill="#BBC4C2"/>
<path d="M20.1562 6.83959V9.69259C18.6662 7.51459 16.4807 6.30859 13.9972 6.30859C11.5138 6.30859 9.35541 7.32559 7.78405 9.17059C6.30301 10.9076 5.49023 13.2296 5.49023 15.6866C5.49023 18.2876 6.28494 20.6906 7.72987 22.4366C9.31026 24.3536 11.5228 25.3616 14.1508 25.3616C16.4988 25.3616 18.6752 24.2006 20.1562 22.1576V24.8306C20.1562 27.9806 19.5602 31.2026 15.1803 31.2026C11.9653 31.2026 9.96951 29.3396 9.96951 26.3426V26.2166H6.29397V26.3426C6.36622 31.2026 9.8792 34.4696 15.0267 34.4696C22.8294 34.4696 23.8318 28.8086 23.8318 23.8856V6.83959H20.1562ZM14.4759 22.0946C10.8545 22.0946 8.96709 18.9266 8.96709 15.7946C8.96709 11.7086 11.7395 9.57559 14.4759 9.57559C17.8082 9.57559 20.1382 12.1316 20.1382 15.7946C20.1382 20.1416 17.2935 22.0946 14.4759 22.0946Z" fill="#BBC4C2"/>
<path d="M124.11 14.1842C122.358 14.9132 120.696 15.3092 119.414 15.3092C118.375 15.3092 117.653 15.0572 117.265 14.5532C116.84 14.0042 116.777 13.1222 117.084 11.9162L118.095 7.35317C118.61 5.13917 118.403 3.42917 117.472 2.26817C116.66 1.25117 115.341 0.729172 113.571 0.729172C111.693 0.729172 109.95 1.39517 108.243 2.75417C107.548 1.41317 106.193 0.729172 104.224 0.729172C102.599 0.729172 101.009 1.30517 99.492 2.43017C98.8779 1.33217 97.2705 0.576172 95.374 0.576172C94.4529 0.576172 93.5227 0.747172 92.5925 1.08017L92.3397 1.17017L91.6172 4.59917L92.4841 4.23917C93.7304 3.72617 94.7238 3.75317 95.1844 4.32917C95.5095 4.73417 95.5907 5.41817 95.4011 6.22817L92.9989 16.0832H97.0447L98.6522 9.22517C99.5643 5.83217 100.991 4.24817 103.168 4.24817C103.737 4.24817 104.206 4.43717 104.486 4.78817C104.829 5.22017 104.874 6.07517 104.594 7.25417L102.526 16.0832H106.563L108.46 7.96517C108.983 5.77817 110.69 4.24817 112.623 4.24817C113.219 4.24817 113.688 4.43717 113.977 4.79717C114.321 5.22917 114.366 6.07517 114.086 7.25417L112.921 12.2672C112.478 14.3012 112.758 15.9482 113.743 17.1632C114.745 18.3962 116.461 19.0712 118.574 19.0712C120.326 19.0712 122.25 18.6032 123.984 17.7572L124.2 17.6492L124.968 13.8062L124.11 14.1662V14.1842Z" fill="#BBC4C2"/>
<path d="M53.4806 11.9338C53.0652 10.7638 52.4601 9.75575 51.6744 8.91875C50.8887 8.08175 49.9134 7.41575 48.7755 6.93875C47.6286 6.46175 46.3101 6.21875 44.8562 6.21875C43.4022 6.21875 42.0747 6.46175 40.9278 6.93875C39.7899 7.41575 38.8146 8.08175 38.0289 8.91875C37.2432 9.75575 36.6382 10.7728 36.2227 11.9338C35.8073 13.1038 35.5996 14.3998 35.5996 15.7858C35.5996 17.1718 35.8073 18.5038 36.2227 19.6738C36.6291 20.8438 37.2432 21.8518 38.0289 22.6887C38.8146 23.5257 39.7899 24.1918 40.9278 24.6688C42.0747 25.1458 43.3932 25.3888 44.8562 25.3888C46.3192 25.3888 47.6377 25.1458 48.7755 24.6688C49.9134 24.1918 50.8887 23.5257 51.6744 22.6887C52.4601 21.8518 53.0652 20.8348 53.4806 19.6738C53.896 18.5038 54.1037 17.1988 54.1037 15.7858C54.1037 14.3728 53.896 13.1128 53.4806 11.9338ZM47.3216 21.9148C46.6262 22.3108 45.7954 22.5088 44.8471 22.5088C43.8989 22.5088 43.0771 22.3108 42.3727 21.9148C41.6773 21.5188 41.0994 20.9968 40.6569 20.3578C40.2143 19.7188 39.8802 18.9988 39.6725 18.2067C39.4648 17.4237 39.3564 16.6048 39.3564 15.7768C39.3564 14.9488 39.4648 14.1658 39.6725 13.3648C39.8802 12.5638 40.2143 11.8348 40.6569 11.2138C41.0994 10.5838 41.6773 10.0708 42.3727 9.67475C43.0681 9.27875 43.8989 9.08075 44.8471 9.08075C45.7954 9.08075 46.6172 9.27875 47.3216 9.67475C48.0169 10.0708 48.5949 10.5838 49.0374 11.2138C49.4799 11.8348 49.8141 12.5638 50.0218 13.3648C50.2295 14.1658 50.3379 14.9758 50.3379 15.7768C50.3379 16.5778 50.2295 17.4148 50.0218 18.2067C49.8141 18.9988 49.4799 19.7278 49.0374 20.3578C48.5949 20.9968 48.0169 21.5188 47.3216 21.9148Z" fill="#BBC4C2"/>
</svg>
